<?xml version="1.0" encoding="UTF-8" standalone="no"?>
<svg
   xmlns:dc="http://purl.org/dc/elements/1.1/"
   xmlns:cc="http://creativecommons.org/ns#"
   xmlns:rdf="http://www.w3.org/1999/02/22-rdf-syntax-ns#"
   xmlns:svg="http://www.w3.org/2000/svg"
   xmlns="http://www.w3.org/2000/svg"
   xmlns:sodipodi="http://sodipodi.sourceforge.net/DTD/sodipodi-0.dtd"
   xmlns:inkscape="http://www.inkscape.org/namespaces/inkscape"
   width="1.4632988in"
   height="1.4519391in"
   viewBox="0 0 131.69689 130.67452"
   id="svg2"
   version="1.1"
   inkscape:version="1.0.1 (3bc2e813f5, 2020-09-07)"
   sodipodi:docname="3.svg">
  <defs
     id="defs4" />
  <sodipodi:namedview
     id="base"
     pagecolor="#ffffff"
     bordercolor="#666666"
     borderopacity="1.0"
     inkscape:pageopacity="0.0"
     inkscape:pageshadow="2"
     inkscape:zoom="1.6245779"
     inkscape:cx="-109.57916"
     inkscape:cy="75.497625"
     inkscape:document-units="in"
     inkscape:current-layer="g20"
     showgrid="true"
     units="in"
     inkscape:showpageshadow="false"
     showguides="false"
     inkscape:window-width="1920"
     inkscape:window-height="1017"
     inkscape:window-x="1912"
     inkscape:window-y="-8"
     inkscape:window-maximized="1"
     objecttolerance="10000"
     inkscape:snap-bbox="true"
     guidetolerance="10000"
     inkscape:object-nodes="true"
     fit-margin-top="0"
     fit-margin-left="0"
     fit-margin-right="0"
     fit-margin-bottom="0"
     inkscape:bbox-nodes="true"
     inkscape:document-rotation="0"
     inkscape:snap-bbox-midpoints="true"
     inkscape:snap-global="true" />
  <metadata
     id="metadata7">
    <rdf:RDF>
      <cc:Work
         rdf:about="">
        <dc:format>image/svg+xml</dc:format>
        <dc:type
           rdf:resource="http://purl.org/dc/dcmitype/StillImage" />
        <dc:title></dc:title>
      </cc:Work>
    </rdf:RDF>
  </metadata>
  <g
     inkscape:label="Layer 1"
     inkscape:groupmode="layer"
     id="layer1"
     transform="translate(-31.779082,-991.48601)">
    <g
       id="g20"
       transform="matrix(0.7,0,0,0.7,15,300.70865)">
      <g
         id="g837"
         transform="matrix(0.9,0,0,0.9,11.803932,108.01637)">
        <path
           style="opacity:1;fill:#c0b840;fill-opacity:1;stroke:#000000;stroke-width:12.1863;stroke-miterlimit:4;stroke-dasharray:none;stroke-opacity:1"
           d="m 97.239457,1175.8116 c -34.725482,-7.5721 -63.228678,-33.5698 -74.237803,-67.7116 -1.680363,-5.2113 -2.689333,-12.9351 -3.154615,-24.1491 -0.583958,-14.0744 -0.292408,-18.0232 1.992035,-26.9808 8.873681,-34.7952 35.741416,-62.20171 70.301254,-71.7113 11.597992,-3.19134 39.458542,-3.25929 50.991342,-0.12439 26.6961,7.25677 49.46942,25.59359 62.3525,50.20559 28.68873,54.8072 -1.00532,122.1776 -61.29618,139.0699 -13.59288,3.8087 -33.22311,4.3945 -46.948533,1.4017 z"
           id="path824"
           inkscape:connector-curvature="0" />
        <g
           aria-label="3"
           id="text836"
           style="font-style:normal;font-weight:normal;font-size:136.944px;line-height:1.25;font-family:sans-serif;fill:#000000;fill-opacity:1;stroke:none;stroke-width:3.4236">
          <path
             d="m 143.48228,1082.0026 q 3.20963,2.8753 5.28251,7.2217 2.07288,4.3464 2.07288,11.2337 0,6.8204 -2.47408,12.5041 -2.47409,5.6838 -6.95419,9.8964 -5.01504,4.6807 -11.83549,6.9542 -6.75359,2.2066 -14.84452,2.2066 -8.29153,0 -16.315591,-2.006 -8.024063,-1.9392 -13.172836,-4.2795 v -13.9753 h 1.003008 q 5.683711,3.7446 13.373437,6.2187 7.689722,2.4741 14.844512,2.4741 4.21264,0 8.96021,-1.4042 4.74757,-1.4043 7.68972,-4.1458 3.07589,-2.9422 4.54697,-6.4861 1.53795,-3.544 1.53795,-8.9602 0,-5.3494 -1.73855,-8.8265 -1.67168,-3.544 -4.6807,-5.55 -3.00903,-2.0729 -7.28853,-2.8084 -4.2795,-0.8024 -9.22767,-0.8024 h -6.01804 v -11.1 h 4.6807 q 10.16381,0 16.18186,-4.2126 6.08491,-4.2795 6.08491,-12.4373 0,-3.6108 -1.53794,-6.2855 -1.53795,-2.7416 -4.2795,-4.4801 -2.87529,-1.7385 -6.15178,-2.4072 -3.2765,-0.6687 -7.42226,-0.6687 -6.35239,0 -13.50717,2.2735 -7.154793,2.2735 -13.507176,6.4192 h -0.668672 v -13.9752 q 4.74757,-2.3403 12.637898,-4.2795 7.9572,-2.006 15.37945,-2.006 7.28853,0 12.8385,1.3373 5.54998,1.3374 10.03008,4.2795 4.81444,3.2097 7.28853,7.7566 2.47408,4.547 2.47408,10.6319 0,8.2915 -5.88431,14.5102 -5.81745,6.1518 -13.77464,7.7566 v 0.9361 q 3.20962,0.535 7.35539,2.2735 4.14576,1.6717 7.02105,4.2126 z"
             style="stroke-width:3.4236"
             id="path838" />
        </g>
      </g>
    </g>
  </g>
</svg>
