<?xml version="1.0" encoding="UTF-8" standalone="no"?>
<svg
   xmlns:dc="http://purl.org/dc/elements/1.1/"
   xmlns:cc="http://creativecommons.org/ns#"
   xmlns:rdf="http://www.w3.org/1999/02/22-rdf-syntax-ns#"
   xmlns:svg="http://www.w3.org/2000/svg"
   xmlns="http://www.w3.org/2000/svg"
   xmlns:sodipodi="http://sodipodi.sourceforge.net/DTD/sodipodi-0.dtd"
   xmlns:inkscape="http://www.inkscape.org/namespaces/inkscape"
   width="1.6258872in"
   height="1.6132653in"
   viewBox="0 0 146.32984 145.19387"
   id="svg2"
   version="1.1"
   inkscape:version="1.0.1 (3bc2e813f5, 2020-09-07)"
   sodipodi:docname="5.svg">
  <defs
     id="defs4" />
  <sodipodi:namedview
     id="base"
     pagecolor="#ffffff"
     bordercolor="#666666"
     borderopacity="1.0"
     inkscape:pageopacity="0.0"
     inkscape:pageshadow="2"
     inkscape:zoom="1.6245779"
     inkscape:cx="-101.77491"
     inkscape:cy="83.241286"
     inkscape:document-units="in"
     inkscape:current-layer="g20"
     showgrid="true"
     units="in"
     inkscape:showpageshadow="false"
     showguides="false"
     inkscape:window-width="1920"
     inkscape:window-height="1017"
     inkscape:window-x="1912"
     inkscape:window-y="-8"
     inkscape:window-maximized="1"
     objecttolerance="10000"
     inkscape:snap-bbox="true"
     guidetolerance="10000"
     inkscape:object-nodes="true"
     fit-margin-top="0"
     fit-margin-left="0"
     fit-margin-right="0"
     fit-margin-bottom="0"
     inkscape:bbox-nodes="true"
     inkscape:document-rotation="0" />
  <metadata
     id="metadata7">
    <rdf:RDF>
      <cc:Work
         rdf:about="">
        <dc:format>image/svg+xml</dc:format>
        <dc:type
           rdf:resource="http://purl.org/dc/dcmitype/StillImage" />
        <dc:title />
      </cc:Work>
    </rdf:RDF>
  </metadata>
  <g
     inkscape:label="Layer 1"
     inkscape:groupmode="layer"
     id="layer1"
     transform="translate(-24.462601,-984.22633)">
    <g
       id="g20"
       transform="matrix(0.7,0,0,0.7,15,300.70865)">
      <path
         style="opacity:1;fill:#c0b840;fill-opacity:1;stroke:#000000;stroke-width:12.18626213;stroke-miterlimit:4;stroke-dasharray:none;stroke-opacity:1"
         d="m 97.239457,1175.8116 c -34.725482,-7.5721 -63.228678,-33.5698 -74.237803,-67.7116 -1.680363,-5.2113 -2.689333,-12.9351 -3.154615,-24.1491 -0.583958,-14.0744 -0.292408,-18.0232 1.992035,-26.9808 8.873681,-34.7952 35.741416,-62.20171 70.301254,-71.7113 11.597992,-3.19134 39.458542,-3.25929 50.991342,-0.12439 26.6961,7.25677 49.46942,25.59359 62.3525,50.20559 28.68873,54.8072 -1.00532,122.1776 -61.29618,139.0699 -13.59288,3.8087 -33.22311,4.3945 -46.948533,1.4017 z"
         id="path824"
         inkscape:connector-curvature="0" />
      <g
         aria-label="5"
         style="font-style:normal;font-weight:normal;font-size:53.5714px;line-height:1.25;font-family:sans-serif;letter-spacing:0px;word-spacing:0px;fill:#000000;fill-opacity:1;stroke:none;stroke-width:1.33929"
         id="text840"
         transform="matrix(1.44,0,0,1.44,35.914316,-352.25398)">
        <path
           d="m 82.404436,1008.1274 q 0,5.4409 -1.988002,10.4109 -1.988002,4.97 -5.440848,8.3705 -3.766741,3.6621 -8.998326,5.6501 -5.179269,1.9357 -12.032644,1.9357 -6.382534,0 -12.294224,-1.3602 -5.911691,-1.3079 -9.992327,-3.1913 v -11.0386 h 0.732422 q 4.289899,2.7204 10.044642,4.6561 5.754743,1.8834 11.300223,1.8834 3.714425,0 7.167271,-1.0464 3.505162,-1.0463 6.225586,-3.6621 2.301897,-2.2496 3.452846,-5.3885 1.203264,-3.139 1.203264,-7.2719 0,-4.0283 -1.412528,-6.8011 -1.360212,-2.77271 -3.819057,-4.44682 -2.720424,-1.988 -6.644112,-2.77274 -3.871373,-0.83705 -8.68443,-0.83705 -4.603795,0 -8.893694,0.62779 -4.237584,0.62779 -7.324219,1.25558 v -40.12625 h 46.874998 v 9.15527 H 45.103238 v 20.71708 q 2.249581,-0.20927 4.603794,-0.3139 2.354213,-0.10463 4.080636,-0.10463 6.330217,0 11.090959,1.09863 4.760742,1.04632 8.736747,3.76674 4.185267,2.87737 6.487165,7.42885 2.301897,4.55145 2.301897,11.40485 z"
           style="font-size:107.143px;stroke-width:1.33929"
           id="path819"
           inkscape:connector-curvature="0" />
      </g>
    </g>
  </g>
</svg>
