<?xml version="1.0" encoding="UTF-8" standalone="no"?>
<svg
   xmlns:dc="http://purl.org/dc/elements/1.1/"
   xmlns:cc="http://creativecommons.org/ns#"
   xmlns:rdf="http://www.w3.org/1999/02/22-rdf-syntax-ns#"
   xmlns:svg="http://www.w3.org/2000/svg"
   xmlns="http://www.w3.org/2000/svg"
   xmlns:sodipodi="http://sodipodi.sourceforge.net/DTD/sodipodi-0.dtd"
   xmlns:inkscape="http://www.inkscape.org/namespaces/inkscape"
   width="1.290161in"
   height="1.3101524in"
   viewBox="0 0 116.11449 117.91372"
   id="svg2"
   version="1.1"
   inkscape:version="1.0.1 (3bc2e813f5, 2020-09-07)"
   sodipodi:docname="bond.svg">
  <defs
     id="defs4" />
  <sodipodi:namedview
     id="base"
     pagecolor="#ffffff"
     bordercolor="#666666"
     borderopacity="1.0"
     inkscape:pageopacity="0.0"
     inkscape:pageshadow="2"
     inkscape:zoom="1.6245779"
     inkscape:cx="-241.00677"
     inkscape:cy="-57.585087"
     inkscape:document-units="in"
     inkscape:current-layer="g44"
     showgrid="true"
     units="in"
     inkscape:showpageshadow="false"
     showguides="false"
     inkscape:window-width="1920"
     inkscape:window-height="1017"
     inkscape:window-x="1912"
     inkscape:window-y="-8"
     inkscape:window-maximized="1"
     objecttolerance="10000"
     inkscape:snap-bbox="true"
     guidetolerance="10000"
     inkscape:object-nodes="true"
     fit-margin-top="0"
     fit-margin-left="0"
     fit-margin-right="0"
     fit-margin-bottom="0"
     inkscape:bbox-nodes="true"
     inkscape:snap-global="false"
     scale-x="89.8"
     inkscape:document-rotation="0" />
  <metadata
     id="metadata7">
    <rdf:RDF>
      <cc:Work
         rdf:about="">
        <dc:format>image/svg+xml</dc:format>
        <dc:type
           rdf:resource="http://purl.org/dc/dcmitype/StillImage" />
        <dc:title></dc:title>
      </cc:Work>
    </rdf:RDF>
  </metadata>
  <g
     inkscape:label="Layer 1"
     inkscape:groupmode="layer"
     id="layer1"
     transform="translate(7.5249578,-945.18131)">
    <g
       id="g869"
       transform="matrix(1.3082089,0,0,1.3082089,-15.39664,-309.12861)">
      <g
         id="g44">
        <path
           inkscape:connector-curvature="0"
           id="path822"
           d="m 44.152949,979.48847 5.515728,-0.14327"
           style="fill:none;stroke:#000000;stroke-width:0.465492px;stroke-linecap:butt;stroke-linejoin:miter;stroke-opacity:1" />
        <path
           inkscape:connector-curvature="0"
           id="path824"
           d="m 63.135648,998.11301 2.005717,4.01159"
           style="fill:none;stroke:#000000;stroke-width:0.465492px;stroke-linecap:butt;stroke-linejoin:miter;stroke-opacity:1" />
        <path
           inkscape:connector-curvature="0"
           id="path826"
           d="m 58.479512,1026.0498 4.512871,-0.072"
           style="fill:none;stroke:#000000;stroke-width:0.465492px;stroke-linecap:butt;stroke-linejoin:miter;stroke-opacity:1" />
        <g
           id="g57"
           transform="matrix(0.8,0,0,0.8,10.432159,201.47904)">
          <rect
             ry="32.951099"
             y="950.26227"
             x="-1.906958"
             height="105.44351"
             width="103.72434"
             id="rect851"
             style="opacity:1;fill:#bd0003;fill-opacity:1;stroke:#000000;stroke-width:7.22362;stroke-linecap:round;stroke-linejoin:round;stroke-miterlimit:0;stroke-dasharray:none;stroke-opacity:1" />
          <g
             transform="matrix(0.66629709,0,0,0.66629709,16.640363,335.11313)"
             id="g849">
            <g
               id="g877"
               transform="matrix(0.87502374,0,0,0.87502374,6.2491143,125.27148)"
               style="stroke:#000000;stroke-width:0;stroke-miterlimit:4;stroke-dasharray:none;stroke-opacity:1">
              <g
                 id="g848"
                 style="stroke:#000000;stroke-width:0;stroke-miterlimit:4;stroke-dasharray:none;stroke-opacity:1">
                <g
                   style="stroke:#000000;stroke-width:0;stroke-miterlimit:4;stroke-dasharray:none;stroke-opacity:1"
                   id="g4"
                   transform="matrix(0.21953851,0,0,0.21953851,-6.2018363,946.16054)" />
                <g
                   style="stroke:#000000;stroke-width:0;stroke-miterlimit:4;stroke-dasharray:none;stroke-opacity:1"
                   id="g10"
                   transform="matrix(0.21953851,0,0,0.21953851,-6.2018363,946.16054)">
                  <g
                     id="g4589"
                     style="stroke:#000000;stroke-width:0;stroke-miterlimit:4;stroke-dasharray:none;stroke-opacity:1">
                    <path
                       sodipodi:type="inkscape:offset"
                       inkscape:radius="10.601527"
                       inkscape:original="M 90.4375 3.6933594 C 58.5065 3.6933594 29.594703 20.013562 13.095703 47.351562 C -3.4022966 74.688564 -4.366375 107.87695 10.515625 136.12695 L 129.3125 361.66016 L 95.277344 361.66016 C 54.849344 361.66016 21.957031 394.55147 21.957031 434.98047 C 21.957031 475.40947 54.849344 508.30078 95.277344 508.30078 L 95.355469 508.30078 L 342.96484 508.30078 C 348.25383 508.30078 352.53906 504.01361 352.53906 498.72461 C 352.53906 493.43561 348.25189 489.15234 342.96289 489.15234 L 147.4043 489.15234 C 149.1683 489.15234 153.44717 483.40911 154.57617 482.16211 C 172.32317 462.54411 179.74353 434.03164 173.01953 408.18164 C 170.28253 397.65964 164.92844 388.19348 159.89844 378.64648 L 27.455078 127.20508 C 15.728078 104.94408 16.489234 78.792 29.490234 57.25 C 42.491234 35.707 65.2755 22.847656 90.4375 22.847656 C 120.3065 22.847656 144.60742 47.147578 144.60742 77.017578 C 144.60742 106.88758 120.3075 131.1875 90.4375 131.1875 C 85.1485 131.1875 80.861328 135.47367 80.861328 140.76367 C 80.861328 146.05267 85.1485 150.33789 90.4375 150.33789 L 351.13281 150.33789 L 382.87695 209.14062 C 385.38895 213.79462 391.19461 215.52758 395.84961 213.01758 C 400.50461 210.50558 402.23856 204.69692 399.72656 200.04492 L 372.0332 148.74414 C 405.1952 141.72914 430.16211 112.23763 430.16211 77.015625 C 430.16211 36.586625 397.27175 3.6953125 356.84375 3.6953125 L 240.7793 3.6953125 C 235.4903 3.6953125 231.20508 7.9824856 231.20508 13.271484 C 231.20508 18.560484 235.4903 22.845703 240.7793 22.845703 L 356.84375 22.845703 C 386.71275 22.845703 411.01367 47.145625 411.01367 77.015625 C 411.01367 106.88162 386.72075 131.17955 356.84375 131.18555 L 139.79688 131.18555 C 140.71588 130.34655 141.61423 129.48556 142.49023 128.60156 C 155.98123 114.98656 163.75586 96.188625 163.75586 77.015625 C 163.75586 56.970625 155.21291 37.366625 140.62891 23.640625 C 140.34891 23.377625 140.08283 23.10375 139.79883 22.84375 L 196.10156 22.84375 C 201.39056 22.84375 205.67773 18.558531 205.67773 13.269531 C 205.67773 7.9805319 201.39056 3.6933594 196.10156 3.6933594 L 90.4375 3.6933594 z M 414.50977 239.74219 C 413.27194 239.86014 412.03775 240.22161 410.875 240.84961 C 406.22 243.36161 404.48605 249.17027 406.99805 253.82227 L 485.42188 399.0957 C 495.73487 418.1987 495.25091 440.73491 484.12891 459.37891 C 473.00591 478.02391 453.40336 489.1543 431.69336 489.1543 L 387.64648 489.1543 C 382.35748 489.1543 378.07031 493.43952 378.07031 498.72852 C 378.07031 504.01752 382.35748 508.30469 387.64648 508.30469 L 431.69336 508.30469 C 460.21236 508.30469 485.96322 493.68145 500.57422 469.18945 C 515.18422 444.69645 515.81753 415.09205 502.26953 389.99805 L 423.84766 244.72656 C 421.96216 241.23531 418.22325 239.38833 414.50977 239.74219 z M 95.275391 380.81445 L 139.39453 380.81445 C 143.21553 388.06545 147.4425 395.24184 150.8125 402.71484 C 154.7345 411.24784 156.59148 420.3492 156.39648 429.4082 C 155.69048 462.2742 128.00277 489.15234 95.259766 489.15234 C 65.398766 489.14634 41.105469 464.84834 41.105469 434.98438 C 41.105469 405.11536 65.405391 380.81445 95.275391 380.81445 z "
                       style="stroke:#000000;stroke-width:0;stroke-miterlimit:4;stroke-dasharray:none;stroke-opacity:1"
                       id="path8"
                       d="m 90.4375,-6.9082031 c -35.543353,0 -68.05241,18.3504581 -86.4179688,48.7812501 C -14.345381,72.303502 -15.42909,109.62204 1.1367188,141.06836 L 111.74609,351.05859 H 95.277344 c -46.178109,0 -83.921875,37.74274 -83.921875,83.92188 0,46.17914 37.743766,83.92187 83.921875,83.92187 h 0.07813 247.609371 c 11.01795,0 20.17578,-9.16238 20.17578,-20.17773 0,-11.01794 -9.165,-20.17383 -20.17773,-20.17383 H 170.625 c 14.04952,-21.18581 19.18101,-47.94557 12.6543,-73.03711 -3.195,-12.2827 -9.071,-22.44957 -14.00196,-31.80859 L 36.833984,122.26367 C 26.790937,103.19927 27.432126,81.177455 38.566406,62.728516 49.700584,44.278889 68.887526,33.449219 90.4375,33.449219 c 24.11909,0 43.56836,19.448317 43.56836,43.568359 0,24.120282 -19.44808,43.568362 -43.56836,43.568362 -11.016604,0 -20.177734,9.15987 -20.177734,20.17773 0,11.01795 9.162399,20.17578 20.177734,20.17578 h 254.37109 l 28.74024,53.23828 c 5.23323,9.69241 17.64239,13.39658 27.33203,8.17188 a 10.602587,10.602587 0 0 0 0.004,-0.002 c 9.69709,-5.23289 13.40277,-17.64497 8.16992,-27.33789 v -0.002 l -21.54297,-39.90625 c 31.16634,-12.28939 53.25195,-42.70353 53.25195,-78.085935 0,-46.178801 -37.74181,-83.921875 -83.91992,-83.921875 H 240.7793 c -11.01795,0 -20.17578,9.1623995 -20.17578,20.177734 0,11.015335 9.16044,20.175782 20.17578,20.175782 h 116.06445 c 24.11909,0 43.56836,19.448317 43.56836,43.568359 0,24.116495 -19.43903,43.562445 -43.56836,43.568355 h -194.8457 c 7.93337,-13.04658 12.35937,-28.121323 12.35937,-43.568355 0,-15.469493 -4.45855,-30.535432 -12.39453,-43.570313 h 34.13867 c 11.01534,0 20.17774,-9.15784 20.17774,-20.175781 0,-11.0179403 -9.15979,-20.1777341 -20.17774,-20.1777341 z M 413.50391,229.1875 c -2.6115,0.24884 -5.23997,1.02368 -7.66602,2.33398 -9.69582,5.23395 -13.40167,17.64554 -8.16797,27.3379 l 78.42383,145.27148 a 10.602587,10.602587 0 0 0 0,0.002 c 8.59133,15.91394 8.19534,34.28228 -1.07031,49.81446 h 0.002 c -9.26637,15.5328 -25.24553,24.60546 -43.33203,24.60546 h -44.04688 c -11.01533,0 -20.17773,9.15785 -20.17773,20.17579 0,11.01794 9.15979,20.17773 20.17773,20.17773 h 44.04688 c 32.14299,0 61.51873,-16.681 77.98633,-44.28516 16.46599,-27.60449 17.18663,-61.37583 1.91797,-89.6582 v -0.002 L 433.17578,239.69141 a 10.602587,10.602587 0 0 0 0,-0.002 c -3.92719,-7.27171 -11.8215,-11.25002 -19.67187,-10.50195 z M 95.275391,391.41602 h 37.794919 c 2.94068,5.4055 5.81606,10.6401 8.07813,15.65625 a 10.602587,10.602587 0 0 0 0.0312,0.0703 c 3.25767,7.08763 4.77773,14.57863 4.61719,22.03711 -0.58084,27.03942 -23.59474,49.37 -50.535161,49.37109 -24.111156,-0.005 -43.554688,-19.45176 -43.554688,-43.5664 0,-24.11911 19.448315,-43.56836 43.56836,-43.56836 z" />
                  </g>
                </g>
              </g>
            </g>
            <path
               sodipodi:type="inkscape:offset"
               inkscape:radius="0.81159914"
               inkscape:original="M 77.546875 66.199219 C 76.191001 66.159591 74.750126 66.379654 73.273438 66.882812 C 67.044367 69.00527 63.640784 76.830217 66.316406 82.878906 C 66.780034 83.927013 73.179847 96.198744 80.537109 110.15039 C 98.329544 143.89035 97.088317 141.16339 97.060547 146.50977 C 97.03826 150.79996 96.977936 151.0664 94.916016 155.97656 C 94.614456 156.69463 95.601428 156.7398 112.16211 156.74023 C 128.01345 156.74085 129.87722 156.8152 131.25195 157.50195 C 132.29339 158.02221 132.90671 158.70873 133.19141 159.67578 C 133.70871 161.43294 134.11327 161.47467 134.44727 159.80469 C 134.92263 157.42789 136.29783 156.9811 143.88867 156.73828 C 150.51852 156.52619 150.74621 156.48736 152.78711 155.21484 C 155.68753 153.40642 157.51481 150.14371 157.50781 146.7832 C 157.5019 143.90688 157.7184 144.36926 147.29688 125.10547 C 139.64434 110.96008 139.17604 109.73189 140.63672 107.64648 C 141.71915 106.1011 141.12628 105.14062 139.08984 105.14062 C 136.76159 105.14063 136.11954 104.42584 132.625 97.927734 L 129.72852 92.539062 L 102.95898 92.320312 C 82.414641 92.153285 75.966623 91.974052 75.222656 91.548828 C 73.924954 90.807109 73.363281 89.658221 73.363281 87.746094 C 73.363281 85.738896 75.299845 83.616881 77.136719 83.613281 C 82.748639 83.60221 87.405741 77.986368 86.025391 72.894531 C 84.906868 68.768529 81.614498 66.318101 77.546875 66.199219 z "
               style="opacity:1;fill:#787878;fill-opacity:1;stroke:#000000;stroke-width:0;stroke-linecap:round;stroke-linejoin:round;stroke-miterlimit:4;stroke-dasharray:none;stroke-opacity:1"
               id="path828"
               d="m 77.570312,65.388672 c -1.460362,-0.04268 -2.997726,0.194722 -4.558593,0.726562 -6.720078,2.289761 -10.320887,10.573423 -7.4375,17.091797 0.158324,0.357919 0.623004,1.267052 1.404297,2.785157 0.781293,1.518104 1.853386,3.586356 3.142578,6.058593 2.578384,4.944475 6.018128,11.501729 9.697265,18.478519 8.896794,16.87107 13.040684,24.63886 14.923829,28.7832 1.883144,4.14434 1.520074,4.45665 1.505859,7.19336 -0.02225,4.28276 -0.02003,4.25054 -2.080078,9.15625 -0.06888,0.16402 -0.187158,0.49661 -0.02148,0.87695 0.165674,0.38035 0.49084,0.54196 0.746094,0.62891 0.510508,0.1739 1.12586,0.21802 2.28711,0.26953 2.322498,0.10303 6.701342,0.11502 14.982422,0.11523 7.9244,3.1e-4 12.35476,0.0179 14.94141,0.1211 2.58664,0.10321 3.21848,0.27161 3.78515,0.55469 0.90005,0.44962 1.29853,0.91183 1.52344,1.67578 0.13717,0.46594 0.26738,0.83124 0.42578,1.13867 0.0792,0.15371 0.16349,0.2962 0.29688,0.43945 0.13338,0.14325 0.34471,0.31619 0.66992,0.34961 0.3252,0.0334 0.64115,-0.13239 0.80273,-0.29101 0.16158,-0.15863 0.24329,-0.31106 0.31446,-0.4668 0.14233,-0.31148 0.2305,-0.6623 0.32031,-1.11133 0.10504,-0.5252 0.24191,-0.84917 0.43945,-1.08789 0.19754,-0.23872 0.48797,-0.4443 1.06836,-0.63281 1.16078,-0.37702 3.38298,-0.57241 7.16406,-0.69336 3.31621,-0.10609 5.03568,-0.16178 6.28125,-0.375 1.24557,-0.21323 1.99268,-0.62806 3.02149,-1.26953 3.14245,-1.95933 5.11113,-5.46724 5.10351,-9.12305 -0.003,-1.41789 -0.004,-2.33429 -1.27734,-5.03711 -1.27328,-2.70281 -3.82262,-7.39382 -9.0332,-17.02539 -3.82489,-7.07014 -5.85077,-10.92497 -6.70118,-13.1543 -0.4252,-1.11466 -0.54346,-1.79893 -0.51367,-2.24609 0.0298,-0.44716 0.17386,-0.73303 0.50586,-1.20703 0.31325,-0.44722 0.534,-0.88249 0.63086,-1.3418 0.0969,-0.45931 0.0457,-0.96836 -0.20898,-1.38086 -0.50927,-0.825 -1.487,-1.06054 -2.63282,-1.06055 -1.08107,1e-5 -1.42072,-0.0387 -2.1914,-0.89843 -0.77068,-0.85969 -1.81527,-2.645 -3.5586,-5.886721 l -2.89648,-5.388672 a 0.8116803,0.8116803 0 0 0 -0.70898,-0.427735 l -26.76954,-0.21875 c -10.270496,-0.0835 -17.017085,-0.168625 -21.27734,-0.287109 -2.130127,-0.05924 -3.640027,-0.127838 -4.644531,-0.205078 -0.502252,-0.03862 -0.877917,-0.07907 -1.128907,-0.119141 -0.250989,-0.04007 -0.404656,-0.118803 -0.289062,-0.05273 -1.071822,-0.612614 -1.449219,-1.344463 -1.449219,-3.097656 0,-0.742586 0.387243,-1.617376 0.984375,-2.271485 0.597133,-0.654108 1.372046,-1.047639 1.978516,-1.048828 6.152475,-0.01214 11.210319,-6.061922 9.669922,-11.74414 -1.202523,-4.43586 -4.857908,-7.164947 -9.238282,-7.292969 z"
               transform="matrix(0.9375,0,0,0.9375,-54.495004,897.8672)" />
            <path
               sodipodi:type="inkscape:offset"
               inkscape:radius="0.97325999"
               inkscape:original="M 103.8418 62.369141 C 103.62602 62.362271 103.39866 62.757993 103.04688 63.552734 C 102.23206 65.393539 100.1543 66.205078 96.255859 66.205078 C 94.43676 66.205078 92.949219 66.261928 92.949219 66.330078 C 92.949219 66.398223 93.36212 67.620781 93.867188 69.048828 C 95.180336 72.761662 95.111717 77.434836 93.691406 80.951172 L 92.615234 83.615234 L 112.69727 83.615234 C 124.40862 83.615234 133.39692 83.438306 134.25781 83.191406 C 139.27966 81.751159 142.09712 76.179144 140.1543 71.529297 C 139.29689 69.477248 137.98905 68.080288 135.94727 67.033203 C 134.46554 66.27333 133.25398 66.205078 121.24414 66.205078 C 106.6464 66.205078 105.48473 66.024124 104.57031 63.601562 C 104.26241 62.785818 104.05757 62.37601 103.8418 62.369141 z "
               style="opacity:1;fill:#787878;fill-opacity:1;stroke:#000000;stroke-width:0;stroke-linecap:round;stroke-linejoin:round;stroke-miterlimit:4;stroke-dasharray:none;stroke-opacity:1"
               id="path830"
               d="m 103.87305,61.396484 c -0.35641,-0.01135 -0.65346,0.15407 -0.82617,0.300782 -0.17272,0.146712 -0.27513,0.288356 -0.36915,0.433593 -0.18802,0.290474 -0.33838,0.613681 -0.52148,1.027344 -0.3049,0.688824 -0.77458,1.141244 -1.70313,1.503906 -0.92854,0.362663 -2.315575,0.570313 -4.197261,0.570313 -0.919688,0 -1.755252,0.01368 -2.373047,0.03711 -0.308897,0.01172 -0.561052,0.02532 -0.759765,0.04297 -0.09936,0.0088 -0.179794,0.01663 -0.28125,0.03516 -0.05073,0.0093 -0.100951,0.01629 -0.210938,0.05664 -0.05499,0.02017 -0.126344,0.04115 -0.253906,0.134765 -0.03189,0.0234 -0.06631,0.05154 -0.105469,0.08984 -0.03916,0.03831 -0.124639,0.149861 -0.125,0.150391 -3.61e-4,5.29e-4 -0.118959,0.233844 -0.11914,0.234375 -1.81e-4,5.31e-4 -0.05078,0.315874 -0.05078,0.316406 0,0.249973 0.02256,0.2179 0.03125,0.253906 0.0087,0.03601 0.01698,0.0625 0.02539,0.0918 0.01683,0.0586 0.03569,0.123008 0.06055,0.201172 0.04972,0.156329 0.118861,0.363739 0.203125,0.613281 0.168527,0.499086 0.398498,1.165079 0.652344,1.882813 1.223993,3.460754 1.152083,7.964112 -0.160157,11.212891 L 91.712891,83.25 a 0.97335731,0.97335731 0 0 0 0.902343,1.337891 h 20.082036 c 5.86057,0 11.04076,-0.04385 14.86914,-0.119141 1.91418,-0.03764 3.48958,-0.08283 4.65039,-0.134766 0.5804,-0.02597 1.05508,-0.05392 1.42578,-0.08398 0.3707,-0.03006 0.5743,-0.03457 0.88281,-0.123047 5.56855,-1.597039 8.70583,-7.758767 6.52734,-12.972656 -0.93256,-2.231916 -2.45773,-3.855857 -4.66211,-4.986328 -0.82617,-0.423688 -1.74873,-0.689549 -3.79296,-0.804688 -2.04423,-0.115139 -5.34676,-0.130859 -11.35352,-0.130859 -7.29485,0 -11.24888,-0.05973 -13.31836,-0.382813 -1.03474,-0.161542 -1.55191,-0.382622 -1.82422,-0.591797 -0.27231,-0.209174 -0.41512,-0.45431 -0.62109,-1 -0.16012,-0.424207 -0.29198,-0.755924 -0.46289,-1.05664 -0.0855,-0.150358 -0.17699,-0.29694 -0.33985,-0.453125 -0.16285,-0.156185 -0.44802,-0.340208 -0.80468,-0.351563 z"
               transform="matrix(0.9375,0,0,0.9375,-54.495004,897.8672)" />
            <path
               sodipodi:type="inkscape:offset"
               inkscape:radius="1.3764018"
               inkscape:original="M 86.246094 139.32812 L 81.654297 139.33203 C 77.718212 139.33568 76.739253 139.48794 74.804688 140.38867 C 68.219329 143.45478 68.267498 152.53416 74.886719 156.01758 C 76.783073 157.01555 80.534467 156.92624 82.798828 155.83008 C 88.079191 153.2739 89.990546 147.03643 87.232422 141.35938 L 86.246094 139.32812 z "
               style="opacity:1;fill:#787878;fill-opacity:1;stroke:#000000;stroke-width:0;stroke-linecap:round;stroke-linejoin:round;stroke-miterlimit:4;stroke-dasharray:none;stroke-opacity:1"
               id="path832"
               d="m 86.244141,137.95117 -4.591797,0.004 c -3.971369,0.004 -5.385902,0.23487 -7.427735,1.18554 -3.765128,1.75303 -5.725889,5.33525 -5.707031,8.91407 0.01886,3.57882 1.983995,7.21105 5.728516,9.18164 1.294157,0.68106 2.870324,0.8881 4.492187,0.84961 1.621864,-0.0385 3.272857,-0.346 4.660157,-1.01758 5.953509,-2.88205 8.112783,-10.05225 5.072265,-16.31055 l -0.986328,-2.03125 a 1.3765394,1.3765394 0 0 0 -1.240234,-0.77539 z"
               transform="matrix(0.9375,0,0,0.9375,-54.495004,897.8672)" />
          </g>
        </g>
      </g>
    </g>
  </g>
</svg>
