<?xml version="1.0" encoding="UTF-8" standalone="no"?>
<svg
   xmlns:dc="http://purl.org/dc/elements/1.1/"
   xmlns:cc="http://creativecommons.org/ns#"
   xmlns:rdf="http://www.w3.org/1999/02/22-rdf-syntax-ns#"
   xmlns:svg="http://www.w3.org/2000/svg"
   xmlns="http://www.w3.org/2000/svg"
   xmlns:sodipodi="http://sodipodi.sourceforge.net/DTD/sodipodi-0.dtd"
   xmlns:inkscape="http://www.inkscape.org/namespaces/inkscape"
   width="1.5555557in"
   height="2.3333335in"
   viewBox="0 0 140.00001 210.00001"
   id="svg2"
   version="1.1"
   inkscape:version="1.0.1 (3bc2e813f5, 2020-09-07)"
   sodipodi:docname="gold-card-10.svg">
  <defs
     id="defs4" />
  <sodipodi:namedview
     id="base"
     pagecolor="#ffffff"
     bordercolor="#666666"
     borderopacity="1.0"
     inkscape:pageopacity="0.0"
     inkscape:pageshadow="2"
     inkscape:zoom="1.6245779"
     inkscape:cx="-167.328"
     inkscape:cy="70.231098"
     inkscape:document-units="in"
     inkscape:current-layer="g22"
     showgrid="true"
     units="in"
     inkscape:showpageshadow="false"
     showguides="false"
     inkscape:window-width="1920"
     inkscape:window-height="1017"
     inkscape:window-x="1912"
     inkscape:window-y="-8"
     inkscape:window-maximized="1"
     objecttolerance="10000"
     inkscape:snap-bbox="true"
     guidetolerance="10000"
     inkscape:object-nodes="true"
     fit-margin-top="0"
     fit-margin-left="0"
     fit-margin-right="0"
     fit-margin-bottom="0"
     inkscape:snap-page="true"
     inkscape:snap-bbox-edge-midpoints="false"
     inkscape:bbox-nodes="true"
     inkscape:snap-bbox-midpoints="true"
     inkscape:snap-global="true"
     inkscape:document-rotation="0" />
  <metadata
     id="metadata7">
    <rdf:RDF>
      <cc:Work
         rdf:about="">
        <dc:format>image/svg+xml</dc:format>
        <dc:type
           rdf:resource="http://purl.org/dc/dcmitype/StillImage" />
        <dc:title></dc:title>
      </cc:Work>
    </rdf:RDF>
  </metadata>
  <g
     inkscape:label="Layer 1"
     inkscape:groupmode="layer"
     id="layer1"
     transform="translate(20.000001,-897.36217)">
    <g
       id="g22"
       transform="matrix(0.7,0,0,0.7,15,300.70865)">
      <rect
         y="858.47925"
         x="-43.882919"
         height="287.76584"
         width="187.76584"
         id="rect4175"
         style="opacity:1;fill:#c0b840;fill-opacity:1;stroke:#000000;stroke-width:12.23416424;stroke-linecap:round;stroke-linejoin:round;stroke-miterlimit:4;stroke-dasharray:none;stroke-opacity:1" />
      <g
         aria-label="10"
         id="text843"
         style="font-style:normal;font-weight:normal;font-size:128.571px;line-height:1.25;font-family:sans-serif;fill:#000000;fill-opacity:1;stroke:none;stroke-width:1.33929"
         transform="matrix(1.0115239,0,0,1.2155062,170.14345,-92.828506)">
        <path
           d="m -136.94916,947.72351 h -50.59972 v -9.54238 h 19.46143 v -62.65325 h -19.46143 v -8.53792 q 3.95507,0 8.47514,-0.62778 4.52007,-0.69057 6.84289,-1.94615 2.88782,-1.56947 4.52007,-3.95506 1.69503,-2.44838 1.94615,-6.529 h 9.73071 v 84.24916 h 19.08476 z"
           style="font-size:128.571px;stroke-width:1.33929"
           id="path845" />
        <path
           d="m -50.000513,900.9533 q 0,25.1743 -7.91013,36.97672 -7.847351,11.73963 -24.420956,11.73963 -16.824721,0 -24.609291,-11.92797 -7.7218,-11.92797 -7.7218,-36.66282 0,-24.92319 7.84736,-36.78839 7.847347,-11.92797 24.483731,-11.92797 16.824721,0 24.546514,12.11631 7.784572,12.05353 7.784572,36.47449 z m -16.510826,28.50158 q 2.197258,-5.08509 2.950604,-11.92798 0.816124,-6.90566 0.816124,-16.5736 0,-9.54238 -0.816124,-16.57361 -0.753346,-7.03122 -3.013383,-11.92797 -2.197258,-4.83397 -6.026766,-7.28234 -3.766728,-2.44838 -9.730715,-2.44838 -5.901208,0 -9.793494,2.44838 -3.829507,2.44837 -6.089544,7.4079 -2.134483,4.64563 -2.950603,12.11631 -0.75335,7.47068 -0.75335,16.38527 0,9.79349 0.69057,16.38527 0.69057,6.59177 2.950604,11.80241 2.0717,4.89675 5.838429,7.47068 3.829507,2.57393 10.107388,2.57393 5.901208,0 9.793494,-2.44837 3.892286,-2.44838 6.026766,-7.4079 z"
           style="font-size:128.571px;stroke-width:1.33929"
           id="path847" />
      </g>
    </g>
  </g>
</svg>
