<?xml version="1.0" encoding="UTF-8" standalone="no"?>
<svg
   xmlns:dc="http://purl.org/dc/elements/1.1/"
   xmlns:cc="http://creativecommons.org/ns#"
   xmlns:rdf="http://www.w3.org/1999/02/22-rdf-syntax-ns#"
   xmlns:svg="http://www.w3.org/2000/svg"
   xmlns="http://www.w3.org/2000/svg"
   xmlns:sodipodi="http://sodipodi.sourceforge.net/DTD/sodipodi-0.dtd"
   xmlns:inkscape="http://www.inkscape.org/namespaces/inkscape"
   width="1.5555557in"
   height="2.3333335in"
   viewBox="0 0 140.00001 210.00001"
   id="svg2"
   version="1.1"
   inkscape:version="1.0.1 (3bc2e813f5, 2020-09-07)"
   sodipodi:docname="gold-card-2.svg">
  <defs
     id="defs4" />
  <sodipodi:namedview
     id="base"
     pagecolor="#ffffff"
     bordercolor="#666666"
     borderopacity="1.0"
     inkscape:pageopacity="0.0"
     inkscape:pageshadow="2"
     inkscape:zoom="1.6245779"
     inkscape:cx="-167.328"
     inkscape:cy="70.231098"
     inkscape:document-units="in"
     inkscape:current-layer="g22"
     showgrid="true"
     units="in"
     inkscape:showpageshadow="false"
     showguides="false"
     inkscape:window-width="1920"
     inkscape:window-height="1017"
     inkscape:window-x="1912"
     inkscape:window-y="-8"
     inkscape:window-maximized="1"
     objecttolerance="10000"
     inkscape:snap-bbox="true"
     guidetolerance="10000"
     inkscape:object-nodes="true"
     fit-margin-top="0"
     fit-margin-left="0"
     fit-margin-right="0"
     fit-margin-bottom="0"
     inkscape:snap-page="true"
     inkscape:snap-bbox-edge-midpoints="false"
     inkscape:bbox-nodes="true"
     inkscape:snap-bbox-midpoints="false"
     inkscape:snap-global="true"
     inkscape:document-rotation="0"
     inkscape:snap-nodes="false"
     inkscape:snap-others="false" />
  <metadata
     id="metadata7">
    <rdf:RDF>
      <cc:Work
         rdf:about="">
        <dc:format>image/svg+xml</dc:format>
        <dc:type
           rdf:resource="http://purl.org/dc/dcmitype/StillImage" />
        <dc:title></dc:title>
      </cc:Work>
    </rdf:RDF>
  </metadata>
  <g
     inkscape:label="Layer 1"
     inkscape:groupmode="layer"
     id="layer1"
     transform="translate(20.000001,-897.36217)">
    <g
       id="g22"
       transform="matrix(0.7,0,0,0.7,15,300.70865)">
      <rect
         y="858.47925"
         x="-43.882919"
         height="287.76584"
         width="187.76584"
         id="rect4175"
         style="opacity:1;fill:#c0b840;fill-opacity:1;stroke:#000000;stroke-width:12.23416424;stroke-linecap:round;stroke-linejoin:round;stroke-miterlimit:4;stroke-dasharray:none;stroke-opacity:1" />
      <g
         aria-label="4
"
         id="text836"
         style="font-style:normal;font-weight:normal;font-size:53.5714px;line-height:1.25;font-family:sans-serif;fill:#000000;fill-opacity:1;stroke:none;stroke-width:1.33929"
         transform="matrix(2.7761246,0,0,3.424799,140.96455,-1854.8829)">
        <g
           aria-label="2"
           transform="matrix(3.4443865,0,0,3.0205557,717.76597,-1766.551)"
           id="text854"
           style="font-style:normal;font-weight:normal;font-size:17.3739px;line-height:1.25;font-family:sans-serif;fill:#000000;fill-opacity:1;stroke:none;stroke-width:0.581716">
          <path
             d="m -213.76757,867.03027 h -8.55121 v -1.77302 q 0.89075,-0.7635 1.7815,-1.527 0.89924,-0.7635 1.67122,-1.51852 1.6288,-1.5779 2.23112,-2.50259 0.60232,-0.93317 0.60232,-2.01055 0,-0.98407 -0.65322,-1.53549 -0.64473,-0.5599 -1.80695,-0.5599 -0.77199,0 -1.67122,0.27147 -0.89924,0.27147 -1.75605,0.83137 h -0.0848 v -1.78151 q 0.60232,-0.29691 1.60336,-0.54293 1.00951,-0.24602 1.95117,-0.24602 1.94268,0 3.04552,0.94165 1.10283,0.93317 1.10283,2.53653 0,0.72108 -0.18663,1.34885 -0.17815,0.61928 -0.53445,1.17918 -0.33085,0.52597 -0.78047,1.03497 -0.44113,0.509 -1.07738,1.12829 -0.90772,0.89075 -1.87482,1.7306 -0.96711,0.83137 -1.80696,1.54397 h 6.79516 z"
             style="stroke-width:0.581716"
             id="path860" />
        </g>
      </g>
    </g>
  </g>
</svg>
