<?xml version="1.0" encoding="UTF-8" standalone="no"?>
<svg
   xmlns:dc="http://purl.org/dc/elements/1.1/"
   xmlns:cc="http://creativecommons.org/ns#"
   xmlns:rdf="http://www.w3.org/1999/02/22-rdf-syntax-ns#"
   xmlns:svg="http://www.w3.org/2000/svg"
   xmlns="http://www.w3.org/2000/svg"
   xmlns:sodipodi="http://sodipodi.sourceforge.net/DTD/sodipodi-0.dtd"
   xmlns:inkscape="http://www.inkscape.org/namespaces/inkscape"
   width="1.5555557in"
   height="2.3333335in"
   viewBox="0 0 140.00001 210.00001"
   id="svg2"
   version="1.1"
   inkscape:version="1.0.1 (3bc2e813f5, 2020-09-07)"
   sodipodi:docname="gold-card-3.svg">
  <defs
     id="defs4" />
  <sodipodi:namedview
     id="base"
     pagecolor="#ffffff"
     bordercolor="#666666"
     borderopacity="1.0"
     inkscape:pageopacity="0.0"
     inkscape:pageshadow="2"
     inkscape:zoom="1.6245779"
     inkscape:cx="-167.328"
     inkscape:cy="70.231098"
     inkscape:document-units="in"
     inkscape:current-layer="text836"
     showgrid="true"
     units="in"
     inkscape:showpageshadow="false"
     showguides="false"
     inkscape:window-width="1920"
     inkscape:window-height="1017"
     inkscape:window-x="1912"
     inkscape:window-y="-8"
     inkscape:window-maximized="1"
     objecttolerance="10000"
     inkscape:snap-bbox="true"
     guidetolerance="10000"
     inkscape:object-nodes="true"
     fit-margin-top="0"
     fit-margin-left="0"
     fit-margin-right="0"
     fit-margin-bottom="0"
     inkscape:snap-page="true"
     inkscape:snap-bbox-edge-midpoints="false"
     inkscape:bbox-nodes="true"
     inkscape:snap-bbox-midpoints="false"
     inkscape:snap-global="true"
     inkscape:document-rotation="0"
     inkscape:snap-nodes="false"
     inkscape:snap-others="false" />
  <metadata
     id="metadata7">
    <rdf:RDF>
      <cc:Work
         rdf:about="">
        <dc:format>image/svg+xml</dc:format>
        <dc:type
           rdf:resource="http://purl.org/dc/dcmitype/StillImage" />
        <dc:title></dc:title>
      </cc:Work>
    </rdf:RDF>
  </metadata>
  <g
     inkscape:label="Layer 1"
     inkscape:groupmode="layer"
     id="layer1"
     transform="translate(20.000001,-897.36217)">
    <g
       id="g22"
       transform="matrix(0.7,0,0,0.7,15,300.70865)">
      <rect
         y="858.47925"
         x="-43.882919"
         height="287.76584"
         width="187.76584"
         id="rect4175"
         style="opacity:1;fill:#c0b840;fill-opacity:1;stroke:#000000;stroke-width:12.23416424;stroke-linecap:round;stroke-linejoin:round;stroke-miterlimit:4;stroke-dasharray:none;stroke-opacity:1" />
      <g
         aria-label="4
"
         id="text836"
         style="font-style:normal;font-weight:normal;font-size:53.5714px;line-height:1.25;font-family:sans-serif;fill:#000000;fill-opacity:1;stroke:none;stroke-width:1.33929"
         transform="matrix(2.7761246,0,0,3.424799,140.96455,-1854.8829)" />
      <g
         aria-label="3
"
         id="text845"
         style="font-style:normal;font-weight:normal;font-size:53.5714px;line-height:1.25;font-family:sans-serif;fill:#000000;fill-opacity:1;stroke:none;stroke-width:1.33929"
         transform="matrix(3.186459,0,0,3.2878954,153.15319,-1740.8576)">
        <path
           d="m -22.848089,833.60696 q 1.255579,1.12479 2.066474,2.82506 0.810896,1.70026 0.810896,4.39452 0,2.66811 -0.967843,4.89153 -0.967843,2.22343 -2.720423,3.87137 -1.961843,1.83106 -4.62995,2.72043 -2.641949,0.86321 -5.807056,0.86321 -3.243581,0 -6.38253,-0.78474 -3.138949,-0.75858 -5.153108,-1.67411 v -5.467 h 0.392369 q 2.223422,1.46484 5.231582,2.43269 3.008159,0.96784 5.807056,0.96784 1.647948,0 3.50516,-0.54932 1.857211,-0.54931 3.008159,-1.62179 1.203264,-1.15095 1.778738,-2.53731 0.601632,-1.38637 0.601632,-3.50516 0,-2.09264 -0.680106,-3.45285 -0.653947,-1.38637 -1.831053,-2.1711 -1.177106,-0.8109 -2.851213,-1.09864 -1.674106,-0.31389 -3.609791,-0.31389 h -2.354212 v -4.34222 h 1.831054 q 3.976002,0 6.330214,-1.64794 2.38037,-1.67411 2.38037,-4.86537 0,-1.41253 -0.601632,-2.45885 -0.601632,-1.07247 -1.674106,-1.75258 -1.124791,-0.6801 -2.406528,-0.94168 -1.281738,-0.26158 -2.903528,-0.26158 -2.485002,0 -5.283898,0.88937 -2.798896,0.88937 -5.283898,2.51116 h -0.261579 V 815.061 q 1.857212,-0.91552 4.943845,-1.6741 3.112791,-0.78474 6.016319,-0.78474 2.851213,0 5.022319,0.52316 2.171107,0.52316 3.923687,1.6741 1.883369,1.25558 2.851212,3.03432 0.967842,1.77874 0.967842,4.15911 0,3.24358 -2.301896,5.67627 -2.275738,2.40652 -5.388529,3.03431 v 0.36621 q 1.25558,0.20927 2.87737,0.88937 1.62179,0.65395 2.746581,1.64795 z"
           style="stroke-width:1.33929"
           id="path849" />
      </g>
    </g>
  </g>
</svg>
