<?xml version="1.0" encoding="UTF-8" standalone="no"?>
<svg
   xmlns:dc="http://purl.org/dc/elements/1.1/"
   xmlns:cc="http://creativecommons.org/ns#"
   xmlns:rdf="http://www.w3.org/1999/02/22-rdf-syntax-ns#"
   xmlns:svg="http://www.w3.org/2000/svg"
   xmlns="http://www.w3.org/2000/svg"
   xmlns:sodipodi="http://sodipodi.sourceforge.net/DTD/sodipodi-0.dtd"
   xmlns:inkscape="http://www.inkscape.org/namespaces/inkscape"
   width="1.5555557in"
   height="2.3333335in"
   viewBox="0 0 140.00001 210.00001"
   id="svg2"
   version="1.1"
   inkscape:version="1.0.1 (3bc2e813f5, 2020-09-07)"
   sodipodi:docname="gold-card-9.svg">
  <defs
     id="defs4" />
  <sodipodi:namedview
     id="base"
     pagecolor="#ffffff"
     bordercolor="#666666"
     borderopacity="1.0"
     inkscape:pageopacity="0.0"
     inkscape:pageshadow="2"
     inkscape:zoom="1.6245779"
     inkscape:cx="-167.328"
     inkscape:cy="70.231098"
     inkscape:document-units="in"
     inkscape:current-layer="g22"
     showgrid="true"
     units="in"
     inkscape:showpageshadow="false"
     showguides="false"
     inkscape:window-width="1920"
     inkscape:window-height="1017"
     inkscape:window-x="1912"
     inkscape:window-y="-8"
     inkscape:window-maximized="1"
     objecttolerance="10000"
     inkscape:snap-bbox="true"
     guidetolerance="10000"
     inkscape:object-nodes="true"
     fit-margin-top="0"
     fit-margin-left="0"
     fit-margin-right="0"
     fit-margin-bottom="0"
     inkscape:snap-page="true"
     inkscape:snap-bbox-edge-midpoints="false"
     inkscape:bbox-nodes="true"
     inkscape:snap-bbox-midpoints="true"
     inkscape:snap-global="true"
     inkscape:document-rotation="0" />
  <metadata
     id="metadata7">
    <rdf:RDF>
      <cc:Work
         rdf:about="">
        <dc:format>image/svg+xml</dc:format>
        <dc:type
           rdf:resource="http://purl.org/dc/dcmitype/StillImage" />
        <dc:title />
      </cc:Work>
    </rdf:RDF>
  </metadata>
  <g
     inkscape:label="Layer 1"
     inkscape:groupmode="layer"
     id="layer1"
     transform="translate(20.000001,-897.36217)">
    <g
       id="g22"
       transform="matrix(0.7,0,0,0.7,15,300.70865)">
      <rect
         y="858.47925"
         x="-43.882919"
         height="287.76584"
         width="187.76584"
         id="rect4175"
         style="opacity:1;fill:#c0b840;fill-opacity:1;stroke:#000000;stroke-width:12.23416424;stroke-linecap:round;stroke-linejoin:round;stroke-miterlimit:4;stroke-dasharray:none;stroke-opacity:1" />
      <g
         aria-label="9"
         id="text836"
         style="font-style:normal;font-weight:normal;font-size:53.5714px;line-height:1.25;font-family:sans-serif;fill:#000000;fill-opacity:1;stroke:none;stroke-width:1.33929"
         transform="translate(-1.5000001e-7,-4.2641601e-5)">
        <path
           d="m 91.355606,995.37806 q 0,15.30234 -3.531314,27.77964 -3.45284,12.4773 -10.515467,21.2664 -7.141101,8.946 -17.891989,13.8113 -10.750888,4.8654 -25.26851,4.8654 -4.080629,0 -7.690417,-0.4708 -3.609787,-0.3924 -6.434838,-1.3341 v -14.9884 h 0.784737 q 2.275735,1.1771 6.434838,2.2757 4.159103,1.0201 9.259889,1.0201 17.342673,0 27.151877,-10.3585 9.887679,-10.437 11.457151,-28.7213 -7.298048,4.3945 -13.732886,6.2779 -6.434838,1.8833 -14.046781,1.8833 -7.219574,0 -13.105097,-1.4125 -5.807049,-1.4125 -11.692571,-5.4931 -6.90568,-4.7869 -10.436994,-12.16346 -3.4528397,-7.37652 -3.4528397,-17.65657 0,-17.89199 11.7710457,-29.11372 11.771045,-11.22173 28.72135,-11.22173 8.475153,0 15.694727,2.66811 7.219574,2.58963 12.634255,7.84736 6.670259,6.51331 10.280046,16.79336 3.609788,10.20157 3.609788,26.44561 z M 75.503931,992.0037 q 0,-12.16342 -2.511156,-19.53994 -2.511156,-7.37652 -6.90568,-11.45715 -3.688261,-3.53131 -7.925837,-5.02231 -4.237576,-1.56948 -9.181415,-1.56948 -11.300204,0 -17.891989,7.06263 -6.513312,7.06263 -6.513312,19.85383 0,7.455 2.118788,12.16341 2.118789,4.70842 7.141101,8.23971 3.531314,2.4327 7.76889,3.2959 4.237576,0.7848 9.416836,0.7848 6.120944,0 12.398835,-1.648 6.27789,-1.6479 11.771045,-4.78688 0.07847,-1.64795 0.156947,-3.21742 0.156947,-1.64795 0.156947,-4.1591 z"
           style="font-size:160.714px;stroke-width:1.33929"
           id="path838" />
      </g>
    </g>
  </g>
</svg>
