<?xml version="1.0" encoding="UTF-8" standalone="no"?>
<svg
   width="1.290161in"
   height="1.3101524in"
   viewBox="0 0 116.11449 117.91371"
   id="svg2"
   version="1.1"
   inkscape:version="1.1.2 (b8e25be833, 2022-02-05)"
   sodipodi:docname="location-col-5.svg"
   xmlns:inkscape="http://www.inkscape.org/namespaces/inkscape"
   xmlns:sodipodi="http://sodipodi.sourceforge.net/DTD/sodipodi-0.dtd"
   xmlns="http://www.w3.org/2000/svg"
   xmlns:svg="http://www.w3.org/2000/svg"
   xmlns:rdf="http://www.w3.org/1999/02/22-rdf-syntax-ns#"
   xmlns:cc="http://creativecommons.org/ns#"
   xmlns:dc="http://purl.org/dc/elements/1.1/">
  <defs
     id="defs4" />
  <sodipodi:namedview
     id="base"
     pagecolor="#ffffff"
     bordercolor="#666666"
     borderopacity="1.0"
     inkscape:pageopacity="0.0"
     inkscape:pageshadow="2"
     inkscape:zoom="1.6245779"
     inkscape:cx="-44.626977"
     inkscape:cy="19.08188"
     inkscape:document-units="in"
     inkscape:current-layer="g57"
     showgrid="true"
     units="in"
     inkscape:showpageshadow="false"
     showguides="false"
     inkscape:window-width="1920"
     inkscape:window-height="1009"
     inkscape:window-x="-8"
     inkscape:window-y="-8"
     inkscape:window-maximized="1"
     objecttolerance="10000"
     inkscape:snap-bbox="true"
     guidetolerance="10000"
     inkscape:object-nodes="true"
     fit-margin-top="0"
     fit-margin-left="0"
     fit-margin-right="0"
     fit-margin-bottom="0"
     inkscape:snap-page="true"
     inkscape:snap-bbox-edge-midpoints="false"
     inkscape:bbox-nodes="true"
     inkscape:snap-bbox-midpoints="true"
     inkscape:snap-global="false"
     inkscape:document-rotation="0"
     inkscape:pagecheckerboard="0" />
  <metadata
     id="metadata7">
    <rdf:RDF>
      <cc:Work
         rdf:about="">
        <dc:format>image/svg+xml</dc:format>
        <dc:type
           rdf:resource="http://purl.org/dc/dcmitype/StillImage" />
      </cc:Work>
    </rdf:RDF>
  </metadata>
  <g
     inkscape:label="Layer 1"
     inkscape:groupmode="layer"
     id="layer1"
     transform="translate(-3.0675855,-986.47063)">
    <g
       id="g22"
       transform="matrix(0.7,0,0,0.7,15,300.70865)">
      <g
         id="g57"
         transform="matrix(1.4950958,0,0,1.4950958,133.82424,-394.45363)">
        <rect
           ry="32.951099"
           y="922.69244"
           x="-97.298477"
           height="105.44351"
           width="103.72434"
           id="rect851"
           style="opacity:1;fill:#ececec;fill-opacity:1;stroke:#000000;stroke-width:7.22362;stroke-linecap:round;stroke-linejoin:round;stroke-miterlimit:0;stroke-dasharray:none;stroke-opacity:1" />
        <g
           aria-label="e"
           id="text1899"
           style="font-size:76.4404px;line-height:1.25;stroke-width:0.895786">
          <path
             d="m -26.512826,981.96466 h -30.717993 q 0,3.84442 1.157057,6.7184 1.157057,2.83665 3.172575,4.66555 1.94087,1.79157 4.590903,2.68735 2.687358,0.89579 5.897257,0.89579 4.254983,0 8.547291,-1.6796 4.329632,-1.71692 6.158528,-3.3592 h 0.373244 v 7.65151 q -3.545819,1.49294 -7.240936,2.50074 -3.695117,1.0078 -7.763478,1.0078 -10.376187,0 -16.198795,-5.59871 -5.822609,-5.63598 -5.822609,-15.97485 0,-10.22689 5.561338,-16.23612 5.598662,-6.00923 14.705819,-6.00923 8.435317,0 12.988896,4.92683 4.590903,4.92682 4.590903,13.99665 z m -6.830368,-5.37471 q -0.03733,-5.52402 -2.799331,-8.5473 -2.724682,-3.02327 -8.323344,-3.02327 -5.635987,0 -8.995184,3.32187 -3.321873,3.32187 -3.769766,8.2487 z"
             id="path827" />
        </g>
      </g>
    </g>
  </g>
</svg>
