<?xml version="1.0" encoding="UTF-8" standalone="no"?>
<svg
   width="1.290161in"
   height="1.3101524in"
   viewBox="0 0 116.11449 117.91371"
   id="svg2"
   version="1.1"
   inkscape:version="1.1.2 (b8e25be833, 2022-02-05)"
   sodipodi:docname="location-row-3.svg"
   xmlns:inkscape="http://www.inkscape.org/namespaces/inkscape"
   xmlns:sodipodi="http://sodipodi.sourceforge.net/DTD/sodipodi-0.dtd"
   xmlns="http://www.w3.org/2000/svg"
   xmlns:svg="http://www.w3.org/2000/svg"
   xmlns:rdf="http://www.w3.org/1999/02/22-rdf-syntax-ns#"
   xmlns:cc="http://creativecommons.org/ns#"
   xmlns:dc="http://purl.org/dc/elements/1.1/">
  <defs
     id="defs4" />
  <sodipodi:namedview
     id="base"
     pagecolor="#ffffff"
     bordercolor="#666666"
     borderopacity="1.0"
     inkscape:pageopacity="0.0"
     inkscape:pageshadow="2"
     inkscape:zoom="1.6245779"
     inkscape:cx="-44.626977"
     inkscape:cy="19.08188"
     inkscape:document-units="in"
     inkscape:current-layer="g57"
     showgrid="true"
     units="in"
     inkscape:showpageshadow="false"
     showguides="false"
     inkscape:window-width="1920"
     inkscape:window-height="1009"
     inkscape:window-x="-8"
     inkscape:window-y="-8"
     inkscape:window-maximized="1"
     objecttolerance="10000"
     inkscape:snap-bbox="true"
     guidetolerance="10000"
     inkscape:object-nodes="true"
     fit-margin-top="0"
     fit-margin-left="0"
     fit-margin-right="0"
     fit-margin-bottom="0"
     inkscape:snap-page="true"
     inkscape:snap-bbox-edge-midpoints="false"
     inkscape:bbox-nodes="true"
     inkscape:snap-bbox-midpoints="true"
     inkscape:snap-global="false"
     inkscape:document-rotation="0"
     inkscape:pagecheckerboard="0" />
  <metadata
     id="metadata7">
    <rdf:RDF>
      <cc:Work
         rdf:about="">
        <dc:format>image/svg+xml</dc:format>
        <dc:type
           rdf:resource="http://purl.org/dc/dcmitype/StillImage" />
      </cc:Work>
    </rdf:RDF>
  </metadata>
  <g
     inkscape:label="Layer 1"
     inkscape:groupmode="layer"
     id="layer1"
     transform="translate(-3.0675855,-986.47063)">
    <g
       id="g22"
       transform="matrix(0.7,0,0,0.7,15,300.70865)">
      <g
         id="g57"
         transform="matrix(1.4950958,0,0,1.4950958,133.82424,-394.45363)">
        <rect
           ry="32.951099"
           y="922.69244"
           x="-97.298477"
           height="105.44351"
           width="103.72434"
           id="rect851"
           style="opacity:1;fill:#ececec;fill-opacity:1;stroke:#000000;stroke-width:7.22362;stroke-linecap:round;stroke-linejoin:round;stroke-miterlimit:0;stroke-dasharray:none;stroke-opacity:1" />
        <g
           aria-label="3"
           id="text2037"
           style="font-size:76.4404px;line-height:1.25;stroke-width:0.895786">
          <path
             d="m -32.111491,976.53387 q 1.791571,1.60495 2.948628,4.03103 1.157057,2.42609 1.157057,6.2705 0,3.80709 -1.381003,6.97967 -1.381004,3.17258 -3.881739,5.52401 -2.799331,2.61272 -6.606421,3.88172 -3.769766,1.2317 -8.28602,1.2317 -4.628228,0 -9.107157,-1.1197 -4.47893,-1.0824 -7.35291,-2.3888 v -7.80077 h 0.559866 q 3.172576,2.09017 7.464883,3.47117 4.292308,1.381 8.28602,1.381 2.351438,0 5.001471,-0.78381 2.650034,-0.78381 4.292308,-2.31411 1.716923,-1.64228 2.53806,-3.62047 0.858462,-1.97819 0.858462,-5.00147 0,-2.98595 -0.970435,-4.92682 -0.93311,-1.9782 -2.612709,-3.09793 -1.679599,-1.15706 -4.068361,-1.56763 -2.388763,-0.44789 -5.150769,-0.44789 h -3.359197 v -6.19585 h 2.612709 q 5.67331,0 9.032508,-2.35144 3.396521,-2.38876 3.396521,-6.94234 0,-2.01552 -0.858461,-3.5085 -0.858462,-1.5303 -2.388763,-2.50073 -1.604949,-0.97044 -3.433846,-1.34368 -1.828896,-0.37324 -4.14301,-0.37324 -3.545819,0 -7.539531,1.26903 -3.993712,1.26903 -7.539532,3.58314 h -0.373244 v -7.8008 q 2.650033,-1.30636 7.054314,-2.38877 4.441605,-1.11973 8.584615,-1.11973 4.068361,0 7.166288,0.74649 3.097926,0.74649 5.598662,2.38876 2.687358,1.79158 4.068361,4.32964 1.381003,2.53806 1.381003,5.93458 0,4.62822 -3.284548,8.09939 -3.247224,3.43385 -7.688829,4.32964 v 0.52254 q 1.791572,0.29859 4.105685,1.26903 2.314114,0.93311 3.919064,2.35144 z"
             id="path935" />
        </g>
      </g>
    </g>
  </g>
</svg>
