<?xml version="1.0" encoding="UTF-8" standalone="no"?>
<svg
   width="1.207in"
   height="1.6756332in"
   viewBox="0 0 108.63 150.80698"
   id="svg2"
   version="1.1"
   inkscape:version="1.1.2 (b8e25be833, 2022-02-05)"
   sodipodi:docname="location-col-7.svg"
   xmlns:inkscape="http://www.inkscape.org/namespaces/inkscape"
   xmlns:sodipodi="http://sodipodi.sourceforge.net/DTD/sodipodi-0.dtd"
   xmlns="http://www.w3.org/2000/svg"
   xmlns:svg="http://www.w3.org/2000/svg"
   xmlns:rdf="http://www.w3.org/1999/02/22-rdf-syntax-ns#"
   xmlns:cc="http://creativecommons.org/ns#"
   xmlns:dc="http://purl.org/dc/elements/1.1/">
  <defs
     id="defs4" />
  <sodipodi:namedview
     id="base"
     pagecolor="#ffffff"
     bordercolor="#666666"
     borderopacity="1.0"
     inkscape:pageopacity="0.0"
     inkscape:pageshadow="2"
     inkscape:zoom="1.6245779"
     inkscape:cx="-53.860144"
     inkscape:cy="60.323362"
     inkscape:document-units="in"
     inkscape:current-layer="g57"
     showgrid="true"
     units="in"
     inkscape:showpageshadow="false"
     showguides="false"
     inkscape:window-width="1920"
     inkscape:window-height="1009"
     inkscape:window-x="-8"
     inkscape:window-y="-8"
     inkscape:window-maximized="1"
     objecttolerance="10000"
     inkscape:snap-bbox="true"
     guidetolerance="10000"
     inkscape:object-nodes="true"
     fit-margin-top="0"
     fit-margin-left="0"
     fit-margin-right="0"
     fit-margin-bottom="0"
     inkscape:snap-page="true"
     inkscape:snap-bbox-edge-midpoints="false"
     inkscape:bbox-nodes="true"
     inkscape:snap-bbox-midpoints="true"
     inkscape:snap-global="false"
     inkscape:document-rotation="0"
     inkscape:pagecheckerboard="0" />
  <metadata
     id="metadata7">
    <rdf:RDF>
      <cc:Work
         rdf:about="">
        <dc:format>image/svg+xml</dc:format>
        <dc:type
           rdf:resource="http://purl.org/dc/dcmitype/StillImage" />
      </cc:Work>
    </rdf:RDF>
  </metadata>
  <g
     inkscape:label="Layer 1"
     inkscape:groupmode="layer"
     id="layer1"
     transform="translate(-11.662272,-947.99977)">
    <g
       id="g22"
       transform="matrix(0.7,0,0,0.7,15,300.70865)">
      <g
         id="g57"
         transform="matrix(1.4950958,0,0,1.4950958,133.82424,-394.45363)">
        <rect
           ry="32.951099"
           y="885.93335"
           x="-89.086212"
           height="136.8732"
           id="rect851-5"
           style="fill:#ececec;fill-opacity:1;stroke:#000000;stroke-width:7.22362;stroke-linecap:round;stroke-linejoin:round;stroke-miterlimit:0;stroke-dasharray:none;stroke-opacity:1"
           width="96.572884" />
        <g
           aria-label="g"
           id="text1899"
           style="font-size:76.4404px;line-height:1.25;stroke-width:0.895786"
           transform="translate(4.6365376,-28.807831)">
          <path
             d="m -27.091359,991.96769 q 0,10.60011 -4.814849,15.56431 -4.814849,4.9641 -14.817792,4.9641 -3.321873,0 -6.494448,-0.4852 -3.135251,-0.4479 -6.195853,-1.3064 v -7.1662 h 0.373244 q 1.716923,0.6718 5.449365,1.6422 3.732441,1.0078 7.464882,1.0078 3.583144,0 5.934582,-0.8585 2.351438,-0.8584 3.657793,-2.3887 1.306354,-1.4557 1.86622,-3.50853 0.559867,-2.05284 0.559867,-4.5909 v -3.8071 q -3.172576,2.53806 -6.08388,3.8071 -2.87398,1.2317 -7.352909,1.2317 -7.464883,0 -11.869164,-5.37471 -4.366956,-5.41204 -4.366956,-15.22837 0,-5.37471 1.492976,-9.25645 1.530301,-3.91906 4.14301,-6.75572 2.426087,-2.65003 5.897257,-4.10568 3.471171,-1.49298 6.905017,-1.49298 3.620468,0 6.046555,0.74649 2.463411,0.70916 5.188094,2.20214 l 0.447892,-1.79157 h 6.569097 z m -7.016989,-6.7184 v -22.73057 q -2.799331,-1.26903 -5.225418,-1.79157 -2.388763,-0.55987 -4.777525,-0.55987 -5.785284,0 -9.107157,3.88174 -3.321873,3.88174 -3.321873,11.27198 0,7.01699 2.463411,10.63745 2.463412,3.62047 8.174047,3.62047 3.060602,0 6.121204,-1.15705 3.097926,-1.19439 5.673311,-3.17258 z"
             id="path827" />
        </g>
      </g>
    </g>
  </g>
</svg>
