<?xml version="1.0" encoding="UTF-8" standalone="no"?>
<svg
   width="1.290161in"
   height="1.3101524in"
   viewBox="0 0 116.11449 117.91371"
   id="svg2"
   version="1.1"
   inkscape:version="1.1.2 (b8e25be833, 2022-02-05)"
   sodipodi:docname="location-col-4.svg"
   xmlns:inkscape="http://www.inkscape.org/namespaces/inkscape"
   xmlns:sodipodi="http://sodipodi.sourceforge.net/DTD/sodipodi-0.dtd"
   xmlns="http://www.w3.org/2000/svg"
   xmlns:svg="http://www.w3.org/2000/svg"
   xmlns:rdf="http://www.w3.org/1999/02/22-rdf-syntax-ns#"
   xmlns:cc="http://creativecommons.org/ns#"
   xmlns:dc="http://purl.org/dc/elements/1.1/">
  <defs
     id="defs4" />
  <sodipodi:namedview
     id="base"
     pagecolor="#ffffff"
     bordercolor="#666666"
     borderopacity="1.0"
     inkscape:pageopacity="0.0"
     inkscape:pageshadow="2"
     inkscape:zoom="1.6245779"
     inkscape:cx="-44.626977"
     inkscape:cy="19.08188"
     inkscape:document-units="in"
     inkscape:current-layer="g57"
     showgrid="true"
     units="in"
     inkscape:showpageshadow="false"
     showguides="false"
     inkscape:window-width="1920"
     inkscape:window-height="1009"
     inkscape:window-x="-8"
     inkscape:window-y="-8"
     inkscape:window-maximized="1"
     objecttolerance="10000"
     inkscape:snap-bbox="true"
     guidetolerance="10000"
     inkscape:object-nodes="true"
     fit-margin-top="0"
     fit-margin-left="0"
     fit-margin-right="0"
     fit-margin-bottom="0"
     inkscape:snap-page="true"
     inkscape:snap-bbox-edge-midpoints="false"
     inkscape:bbox-nodes="true"
     inkscape:snap-bbox-midpoints="true"
     inkscape:snap-global="false"
     inkscape:document-rotation="0"
     inkscape:pagecheckerboard="0" />
  <metadata
     id="metadata7">
    <rdf:RDF>
      <cc:Work
         rdf:about="">
        <dc:format>image/svg+xml</dc:format>
        <dc:type
           rdf:resource="http://purl.org/dc/dcmitype/StillImage" />
      </cc:Work>
    </rdf:RDF>
  </metadata>
  <g
     inkscape:label="Layer 1"
     inkscape:groupmode="layer"
     id="layer1"
     transform="translate(-3.0675855,-986.47063)">
    <g
       id="g22"
       transform="matrix(0.7,0,0,0.7,15,300.70865)">
      <g
         id="g57"
         transform="matrix(1.4950958,0,0,1.4950958,133.82424,-394.45363)">
        <rect
           ry="32.951099"
           y="922.69244"
           x="-97.298477"
           height="105.44351"
           width="103.72434"
           id="rect851"
           style="opacity:1;fill:#ececec;fill-opacity:1;stroke:#000000;stroke-width:7.22362;stroke-linecap:round;stroke-linejoin:round;stroke-miterlimit:0;stroke-dasharray:none;stroke-opacity:1" />
        <g
           aria-label="d"
           id="text1899"
           style="font-size:76.4404px;line-height:1.25;stroke-width:0.895786">
          <path
             d="m -28.099118,1003.8741 h -7.01699 v -4.36697 q -3.023277,2.61267 -6.307825,4.06837 -3.284549,1.4556 -7.128963,1.4556 -7.464883,0 -11.869164,-5.74792 -4.366956,-5.74796 -4.366956,-15.93752 0,-5.30007 1.492976,-9.44308 1.530301,-4.14301 4.105686,-7.05431 2.53806,-2.83666 5.897257,-4.32964 3.396522,-1.49297 7.01699,-1.49297 3.284548,0 5.822608,0.70916 2.53806,0.67184 5.337391,2.12749 V 945.7973 h 7.01699 z m -7.01699,-10.26423 v -23.92495 q -2.836655,-1.26903 -5.07612,-1.75425 -2.239465,-0.48521 -4.889498,-0.48521 -5.897257,0 -9.181806,4.10568 -3.284548,4.10569 -3.284548,11.64522 0,7.42756 2.53806,11.3093 2.53806,3.84441 8.136722,3.84441 2.985953,0 6.046555,-1.30635 3.060602,-1.34368 5.710635,-3.43385 z"
             id="path827" />
        </g>
      </g>
    </g>
  </g>
</svg>
