<?xml version="1.0" encoding="UTF-8" standalone="no"?>
<svg
   width="1.207in"
   height="1.6756332in"
   viewBox="0 0 108.63 150.80698"
   id="svg2"
   version="1.1"
   inkscape:version="1.1.2 (b8e25be833, 2022-02-05)"
   sodipodi:docname="location-col-1.svg"
   xmlns:inkscape="http://www.inkscape.org/namespaces/inkscape"
   xmlns:sodipodi="http://sodipodi.sourceforge.net/DTD/sodipodi-0.dtd"
   xmlns="http://www.w3.org/2000/svg"
   xmlns:svg="http://www.w3.org/2000/svg"
   xmlns:rdf="http://www.w3.org/1999/02/22-rdf-syntax-ns#"
   xmlns:cc="http://creativecommons.org/ns#"
   xmlns:dc="http://purl.org/dc/elements/1.1/">
  <defs
     id="defs4" />
  <sodipodi:namedview
     id="base"
     pagecolor="#ffffff"
     bordercolor="#666666"
     borderopacity="1.0"
     inkscape:pageopacity="0.0"
     inkscape:pageshadow="2"
     inkscape:zoom="1.6245779"
     inkscape:cx="-53.860144"
     inkscape:cy="60.323362"
     inkscape:document-units="in"
     inkscape:current-layer="g57"
     showgrid="true"
     units="in"
     inkscape:showpageshadow="false"
     showguides="false"
     inkscape:window-width="1920"
     inkscape:window-height="1009"
     inkscape:window-x="-8"
     inkscape:window-y="-8"
     inkscape:window-maximized="1"
     objecttolerance="10000"
     inkscape:snap-bbox="true"
     guidetolerance="10000"
     inkscape:object-nodes="true"
     fit-margin-top="0"
     fit-margin-left="0"
     fit-margin-right="0"
     fit-margin-bottom="0"
     inkscape:snap-page="true"
     inkscape:snap-bbox-edge-midpoints="false"
     inkscape:bbox-nodes="true"
     inkscape:snap-bbox-midpoints="true"
     inkscape:snap-global="false"
     inkscape:document-rotation="0"
     inkscape:pagecheckerboard="0" />
  <metadata
     id="metadata7">
    <rdf:RDF>
      <cc:Work
         rdf:about="">
        <dc:format>image/svg+xml</dc:format>
        <dc:type
           rdf:resource="http://purl.org/dc/dcmitype/StillImage" />
      </cc:Work>
    </rdf:RDF>
  </metadata>
  <g
     inkscape:label="Layer 1"
     inkscape:groupmode="layer"
     id="layer1"
     transform="translate(-11.662272,-947.99977)">
    <g
       id="g22"
       transform="matrix(0.7,0,0,0.7,15,300.70865)">
      <g
         id="g57"
         transform="matrix(1.4950958,0,0,1.4950958,133.82424,-394.45363)">
        <rect
           ry="32.951099"
           y="885.93335"
           x="-89.086212"
           height="136.8732"
           id="rect851-5"
           style="fill:#ececec;fill-opacity:1;stroke:#000000;stroke-width:7.22362;stroke-linecap:round;stroke-linejoin:round;stroke-miterlimit:0;stroke-dasharray:none;stroke-opacity:1"
           width="96.572884" />
        <g
           aria-label="a"
           id="text1899"
           style="font-size:76.4404px;line-height:1.25;stroke-width:0.895786"
           transform="translate(4.6365371,-28.733081)">
          <path
             d="m -27.725873,1003.8741 h -6.979665 v -4.44162 q -0.933111,0.63452 -2.53806,1.79162 -1.567626,1.1197 -3.060602,1.7915 -1.754248,0.8585 -4.031037,1.4184 -2.276789,0.5971 -5.337391,0.5971 -5.635987,0 -9.55505,-3.7324 -3.919064,-3.73244 -3.919064,-9.51773 0,-4.7402 2.015519,-7.6515 2.052843,-2.94863 5.822608,-4.62823 3.807091,-1.6796 9.144482,-2.27679 5.337391,-0.59719 11.458595,-0.89578 v -1.08241 q 0,-2.38876 -0.858462,-3.95639 -0.821137,-1.56762 -2.388762,-2.46341 -1.492977,-0.85846 -3.583144,-1.15706 -2.090167,-0.29859 -4.366956,-0.29859 -2.762007,0 -6.158529,0.74649 -3.396521,0.70916 -7.016989,2.09016 h -0.373245 v -7.12896 q 2.052843,-0.55987 5.934582,-1.23171 3.881739,-0.67183 7.651505,-0.67183 4.404281,0 7.651505,0.74648 3.284548,0.70917 5.673311,2.46341 2.351438,1.71693 3.583143,4.44161 1.231706,2.72468 1.231706,6.75572 z m -6.979665,-10.26423 v -11.60789 q -3.2099,0.18662 -7.576856,0.55986 -4.329632,0.37325 -6.867692,1.08241 -3.023278,0.85846 -4.889499,2.68736 -1.86622,1.79157 -1.86622,4.96415 0,3.58314 2.164816,5.41204 2.164816,1.79157 6.606421,1.79157 3.695117,0 6.755719,-1.41833 3.060602,-1.45565 5.673311,-3.47117 z"
             id="path827" />
        </g>
      </g>
    </g>
  </g>
</svg>
