<?xml version="1.0" encoding="UTF-8" standalone="no"?>
<svg
   width="1.207in"
   height="1.6756332in"
   viewBox="0 0 108.63 150.80698"
   id="svg2"
   version="1.1"
   inkscape:version="1.1.2 (b8e25be833, 2022-02-05)"
   sodipodi:docname="location-row-8.svg"
   xmlns:inkscape="http://www.inkscape.org/namespaces/inkscape"
   xmlns:sodipodi="http://sodipodi.sourceforge.net/DTD/sodipodi-0.dtd"
   xmlns="http://www.w3.org/2000/svg"
   xmlns:svg="http://www.w3.org/2000/svg"
   xmlns:rdf="http://www.w3.org/1999/02/22-rdf-syntax-ns#"
   xmlns:cc="http://creativecommons.org/ns#"
   xmlns:dc="http://purl.org/dc/elements/1.1/">
  <defs
     id="defs4" />
  <sodipodi:namedview
     id="base"
     pagecolor="#ffffff"
     bordercolor="#666666"
     borderopacity="1.0"
     inkscape:pageopacity="0.0"
     inkscape:pageshadow="2"
     inkscape:zoom="1.6245779"
     inkscape:cx="-63.093312"
     inkscape:cy="28.930592"
     inkscape:document-units="in"
     inkscape:current-layer="g57"
     showgrid="true"
     units="in"
     inkscape:showpageshadow="false"
     showguides="false"
     inkscape:window-width="1920"
     inkscape:window-height="1009"
     inkscape:window-x="-8"
     inkscape:window-y="-8"
     inkscape:window-maximized="1"
     objecttolerance="10000"
     inkscape:snap-bbox="true"
     guidetolerance="10000"
     inkscape:object-nodes="true"
     fit-margin-top="0"
     fit-margin-left="0"
     fit-margin-right="0"
     fit-margin-bottom="0"
     inkscape:snap-page="true"
     inkscape:snap-bbox-edge-midpoints="false"
     inkscape:bbox-nodes="true"
     inkscape:snap-bbox-midpoints="true"
     inkscape:snap-global="false"
     inkscape:document-rotation="0"
     inkscape:pagecheckerboard="0" />
  <metadata
     id="metadata7">
    <rdf:RDF>
      <cc:Work
         rdf:about="">
        <dc:format>image/svg+xml</dc:format>
        <dc:type
           rdf:resource="http://purl.org/dc/dcmitype/StillImage" />
      </cc:Work>
    </rdf:RDF>
  </metadata>
  <g
     inkscape:label="Layer 1"
     inkscape:groupmode="layer"
     id="layer1"
     transform="translate(-20.309648,-977.43057)">
    <g
       id="g22"
       transform="matrix(0.7,0,0,0.7,15,300.70865)">
      <g
         id="g57"
         transform="matrix(1.4950958,0,0,1.4950958,133.82424,-394.45363)">
        <rect
           ry="32.951099"
           y="914.05463"
           x="-80.823601"
           height="136.8732"
           id="rect851-5"
           style="fill:#ececec;fill-opacity:1;stroke:#000000;stroke-width:7.22362;stroke-linecap:round;stroke-linejoin:round;stroke-miterlimit:0;stroke-dasharray:none;stroke-opacity:1"
           width="96.572884" />
        <g
           aria-label="8"
           id="text2037"
           style="font-size:76.4404px;line-height:1.25;stroke-width:0.895786"
           transform="translate(14.018881,6.9837812)">
          <path
             d="m -26.811425,987.80584 q 0,7.20361 -5.635986,11.98114 -5.598662,4.77752 -14.108628,4.77752 -9.032509,0 -14.407224,-4.66555 -5.337391,-4.66555 -5.337391,-11.94381 0,-4.62823 2.687357,-8.36067 2.687358,-3.76977 7.576856,-5.97191 v -0.22394 q -4.478929,-2.38877 -6.643745,-5.22542 -2.127492,-2.83666 -2.127492,-7.09164 0,-6.2705 5.150769,-10.45084 5.150769,-4.18033 13.10087,-4.18033 8.323344,0 13.287491,3.99371 4.964147,3.99371 4.964147,10.15224 0,3.76977 -2.351438,7.42756 -2.351438,3.62047 -6.905017,5.67331 v 0.22395 q 5.225418,2.23946 7.987425,5.52401 2.762006,3.28455 2.762006,8.36067 z m -8.845886,-27.13485 q 0,-3.99371 -3.097926,-6.34515 -3.060602,-2.38876 -7.838127,-2.38876 -4.702876,0 -7.726154,2.23946 -2.985953,2.23947 -2.985953,6.04656 0,2.68736 1.492977,4.66555 1.530301,1.94087 4.590903,3.47117 1.381003,0.67184 3.956388,1.75425 2.612709,1.08241 5.07612,1.79157 3.695117,-2.46341 5.113445,-5.11345 1.418327,-2.65003 1.418327,-6.1212 z m 1.157057,27.84401 q 0,-3.43384 -1.530301,-5.48669 -1.492976,-2.09016 -5.897257,-4.18033 -1.754248,-0.82114 -3.844415,-1.5303 -2.090167,-0.70916 -5.561337,-1.97819 -3.359198,1.82889 -5.41204,4.96414 -2.015519,3.13525 -2.015519,7.09164 0,5.0388 3.471171,8.32335 3.47117,3.28454 8.808561,3.28454 5.449365,0 8.696589,-2.79933 3.284548,-2.79933 3.284548,-7.68883 z"
             id="path827" />
        </g>
      </g>
    </g>
  </g>
</svg>
