<?xml version="1.0" encoding="UTF-8" standalone="no"?>
<svg
   width="1.290161in"
   height="1.3101524in"
   viewBox="0 0 116.11449 117.91371"
   id="svg2"
   version="1.1"
   inkscape:version="1.1.2 (b8e25be833, 2022-02-05)"
   sodipodi:docname="location-row-6.svg"
   xmlns:inkscape="http://www.inkscape.org/namespaces/inkscape"
   xmlns:sodipodi="http://sodipodi.sourceforge.net/DTD/sodipodi-0.dtd"
   xmlns="http://www.w3.org/2000/svg"
   xmlns:svg="http://www.w3.org/2000/svg"
   xmlns:rdf="http://www.w3.org/1999/02/22-rdf-syntax-ns#"
   xmlns:cc="http://creativecommons.org/ns#"
   xmlns:dc="http://purl.org/dc/elements/1.1/">
  <defs
     id="defs4" />
  <sodipodi:namedview
     id="base"
     pagecolor="#ffffff"
     bordercolor="#666666"
     borderopacity="1.0"
     inkscape:pageopacity="0.0"
     inkscape:pageshadow="2"
     inkscape:zoom="1.6245779"
     inkscape:cx="-44.626977"
     inkscape:cy="19.08188"
     inkscape:document-units="in"
     inkscape:current-layer="g57"
     showgrid="true"
     units="in"
     inkscape:showpageshadow="false"
     showguides="false"
     inkscape:window-width="1920"
     inkscape:window-height="1009"
     inkscape:window-x="-8"
     inkscape:window-y="-8"
     inkscape:window-maximized="1"
     objecttolerance="10000"
     inkscape:snap-bbox="true"
     guidetolerance="10000"
     inkscape:object-nodes="true"
     fit-margin-top="0"
     fit-margin-left="0"
     fit-margin-right="0"
     fit-margin-bottom="0"
     inkscape:snap-page="true"
     inkscape:snap-bbox-edge-midpoints="false"
     inkscape:bbox-nodes="true"
     inkscape:snap-bbox-midpoints="true"
     inkscape:snap-global="false"
     inkscape:document-rotation="0"
     inkscape:pagecheckerboard="0" />
  <metadata
     id="metadata7">
    <rdf:RDF>
      <cc:Work
         rdf:about="">
        <dc:format>image/svg+xml</dc:format>
        <dc:type
           rdf:resource="http://purl.org/dc/dcmitype/StillImage" />
      </cc:Work>
    </rdf:RDF>
  </metadata>
  <g
     inkscape:label="Layer 1"
     inkscape:groupmode="layer"
     id="layer1"
     transform="translate(-3.0675855,-986.47063)">
    <g
       id="g22"
       transform="matrix(0.7,0,0,0.7,15,300.70865)">
      <g
         id="g57"
         transform="matrix(1.4950958,0,0,1.4950958,133.82424,-394.45363)">
        <rect
           ry="32.951099"
           y="922.69244"
           x="-97.298477"
           height="105.44351"
           width="103.72434"
           id="rect851"
           style="opacity:1;fill:#ececec;fill-opacity:1;stroke:#000000;stroke-width:7.22362;stroke-linecap:round;stroke-linejoin:round;stroke-miterlimit:0;stroke-dasharray:none;stroke-opacity:1" />
        <g
           aria-label="6"
           id="text2037"
           style="font-size:76.4404px;line-height:1.25;stroke-width:0.895786">
          <path
             d="m -26.400856,985.26778 q 0,8.47264 -5.598662,13.84736 -5.561338,5.33736 -13.660736,5.33736 -4.105685,0 -7.464882,-1.269 -3.359198,-1.269 -5.934582,-3.76977 -3.2099,-3.09792 -4.964147,-8.21137 -1.716923,-5.11344 -1.716923,-12.31706 0,-7.39023 1.567625,-13.10086 1.60495,-5.71064 5.076121,-10.15225 3.284548,-4.21765 8.472641,-6.56909 5.188094,-2.38876 12.09311,-2.38876 2.202141,0 3.695117,0.18662 1.492977,0.18662 3.023278,0.67184 v 7.12896 h -0.373244 q -1.045084,-0.55987 -3.172575,-1.04508 -2.090168,-0.52255 -4.292308,-0.52255 -8.024749,0 -12.802274,5.0388 -4.777525,5.00147 -5.561337,13.54876 3.13525,-1.90354 6.158528,-2.87398 3.060602,-1.00776 7.054314,-1.00776 3.545819,0 6.233177,0.67184 2.724682,0.63452 5.561338,2.61271 3.284548,2.27679 4.926822,5.74796 1.679599,3.47117 1.679599,8.43532 z m -7.576856,0.29859 q 0,-3.47117 -1.045084,-5.74795 -1.007759,-2.27679 -3.359197,-3.95639 -1.716923,-1.19438 -3.80709,-1.56763 -2.090167,-0.37324 -4.366956,-0.37324 -3.172576,0 -5.897258,0.74649 -2.724682,0.74648 -5.598662,2.31411 -0.07465,0.82114 -0.111973,1.60495 -0.03732,0.74649 -0.03732,1.90354 0,5.89726 1.194382,9.33111 1.231705,3.39652 3.359197,5.37471 1.716923,1.64228 3.695117,2.42609 2.015518,0.74649 4.366956,0.74649 5.41204,0 8.509967,-3.28455 3.097926,-3.32187 3.097926,-9.51773 z"
             id="path827" />
        </g>
      </g>
    </g>
  </g>
</svg>
