<?xml version="1.0" encoding="UTF-8" standalone="no"?>
<svg
   width="1.290161in"
   height="1.3101524in"
   viewBox="0 0 116.11449 117.91371"
   id="svg2"
   version="1.1"
   inkscape:version="1.1.2 (b8e25be833, 2022-02-05)"
   sodipodi:docname="location-col-3.svg"
   xmlns:inkscape="http://www.inkscape.org/namespaces/inkscape"
   xmlns:sodipodi="http://sodipodi.sourceforge.net/DTD/sodipodi-0.dtd"
   xmlns="http://www.w3.org/2000/svg"
   xmlns:svg="http://www.w3.org/2000/svg"
   xmlns:rdf="http://www.w3.org/1999/02/22-rdf-syntax-ns#"
   xmlns:cc="http://creativecommons.org/ns#"
   xmlns:dc="http://purl.org/dc/elements/1.1/">
  <defs
     id="defs4" />
  <sodipodi:namedview
     id="base"
     pagecolor="#ffffff"
     bordercolor="#666666"
     borderopacity="1.0"
     inkscape:pageopacity="0.0"
     inkscape:pageshadow="2"
     inkscape:zoom="1.6245779"
     inkscape:cx="-44.626977"
     inkscape:cy="19.08188"
     inkscape:document-units="in"
     inkscape:current-layer="g57"
     showgrid="true"
     units="in"
     inkscape:showpageshadow="false"
     showguides="false"
     inkscape:window-width="1920"
     inkscape:window-height="1009"
     inkscape:window-x="-8"
     inkscape:window-y="-8"
     inkscape:window-maximized="1"
     objecttolerance="10000"
     inkscape:snap-bbox="true"
     guidetolerance="10000"
     inkscape:object-nodes="true"
     fit-margin-top="0"
     fit-margin-left="0"
     fit-margin-right="0"
     fit-margin-bottom="0"
     inkscape:snap-page="true"
     inkscape:snap-bbox-edge-midpoints="false"
     inkscape:bbox-nodes="true"
     inkscape:snap-bbox-midpoints="true"
     inkscape:snap-global="false"
     inkscape:document-rotation="0"
     inkscape:pagecheckerboard="0" />
  <metadata
     id="metadata7">
    <rdf:RDF>
      <cc:Work
         rdf:about="">
        <dc:format>image/svg+xml</dc:format>
        <dc:type
           rdf:resource="http://purl.org/dc/dcmitype/StillImage" />
      </cc:Work>
    </rdf:RDF>
  </metadata>
  <g
     inkscape:label="Layer 1"
     inkscape:groupmode="layer"
     id="layer1"
     transform="translate(-3.0675855,-986.47063)">
    <g
       id="g22"
       transform="matrix(0.7,0,0,0.7,15,300.70865)">
      <g
         id="g57"
         transform="matrix(1.4950958,0,0,1.4950958,133.82424,-394.45363)">
        <rect
           ry="32.951099"
           y="922.69244"
           x="-97.298477"
           height="105.44351"
           width="103.72434"
           id="rect851"
           style="opacity:1;fill:#ececec;fill-opacity:1;stroke:#000000;stroke-width:7.22362;stroke-linecap:round;stroke-linejoin:round;stroke-miterlimit:0;stroke-dasharray:none;stroke-opacity:1" />
        <g
           aria-label="c"
           id="text1899"
           style="font-size:76.4404px;line-height:1.25;stroke-width:0.895786">
          <path
             d="m -29.293498,1001.2614 q -3.508495,1.6796 -6.68107,2.6127 -3.135251,0.9331 -6.68107,0.9331 -4.516254,0 -8.28602,-1.3064 -3.769766,-1.3436 -6.457124,-4.031 -2.724682,-2.68735 -4.217659,-6.79304 -1.492976,-4.10569 -1.492976,-9.59237 0,-10.22689 5.598662,-16.0495 5.635986,-5.82261 14.855117,-5.82261 3.583143,0 7.016989,1.00776 3.471171,1.00776 6.345151,2.46341 v 7.8008 h -0.373244 q -3.2099,-2.50073 -6.643746,-3.84441 -3.396522,-1.34368 -6.643746,-1.34368 -5.971906,0 -9.443076,4.03104 -3.433846,3.99371 -3.433846,11.75719 0,7.53953 3.359197,11.60789 3.396521,4.03104 9.517725,4.03104 2.127492,0 4.329632,-0.55987 2.202141,-0.55987 3.956388,-1.45565 1.530301,-0.78382 2.87398,-1.64228 1.343679,-0.89578 2.127492,-1.5303 h 0.373244 z"
             id="path827" />
        </g>
      </g>
    </g>
  </g>
</svg>
