<?xml version="1.0" encoding="UTF-8" standalone="no"?>
<svg
   xmlns:dc="http://purl.org/dc/elements/1.1/"
   xmlns:cc="http://creativecommons.org/ns#"
   xmlns:rdf="http://www.w3.org/1999/02/22-rdf-syntax-ns#"
   xmlns:svg="http://www.w3.org/2000/svg"
   xmlns="http://www.w3.org/2000/svg"
   xmlns:sodipodi="http://sodipodi.sourceforge.net/DTD/sodipodi-0.dtd"
   xmlns:inkscape="http://www.inkscape.org/namespaces/inkscape"
   width="1.5555557in"
   height="2.3333335in"
   viewBox="0 0 140.00001 210.00001"
   id="svg2"
   version="1.1"
   inkscape:version="1.0.1 (3bc2e813f5, 2020-09-07)"
   sodipodi:docname="stock-b.svg">
  <defs
     id="defs4" />
  <sodipodi:namedview
     id="base"
     pagecolor="#ffffff"
     bordercolor="#666666"
     borderopacity="1.0"
     inkscape:pageopacity="0.0"
     inkscape:pageshadow="2"
     inkscape:zoom="1.6245779"
     inkscape:cx="-167.328"
     inkscape:cy="45.609318"
     inkscape:document-units="in"
     inkscape:current-layer="g22"
     showgrid="true"
     units="in"
     inkscape:showpageshadow="false"
     showguides="false"
     inkscape:window-width="1920"
     inkscape:window-height="1017"
     inkscape:window-x="1912"
     inkscape:window-y="-8"
     inkscape:window-maximized="1"
     objecttolerance="10000"
     inkscape:snap-bbox="true"
     guidetolerance="10000"
     inkscape:object-nodes="true"
     fit-margin-top="0"
     fit-margin-left="0"
     fit-margin-right="0"
     fit-margin-bottom="0"
     inkscape:snap-page="true"
     inkscape:snap-bbox-edge-midpoints="false"
     inkscape:bbox-nodes="true"
     inkscape:snap-bbox-midpoints="true"
     inkscape:snap-global="true"
     inkscape:document-rotation="0" />
  <metadata
     id="metadata7">
    <rdf:RDF>
      <cc:Work
         rdf:about="">
        <dc:format>image/svg+xml</dc:format>
        <dc:type
           rdf:resource="http://purl.org/dc/dcmitype/StillImage" />
        <dc:title />
      </cc:Work>
    </rdf:RDF>
  </metadata>
  <g
     inkscape:label="Layer 1"
     inkscape:groupmode="layer"
     id="layer1"
     transform="translate(20.000001,-897.36217)">
    <g
       id="g22"
       transform="matrix(0.7,0,0,0.7,15,300.70865)">
      <rect
         y="858.47925"
         x="-43.882919"
         height="287.76584"
         width="187.76584"
         id="rect4175"
         style="opacity:1;fill:#ffffff;fill-opacity:1;stroke:#000000;stroke-width:12.23416424;stroke-linecap:round;stroke-linejoin:round;stroke-miterlimit:4;stroke-dasharray:none;stroke-opacity:1" />
      <g
         aria-label="B"
         style="font-style:normal;font-variant:normal;font-weight:bold;font-stretch:normal;font-size:160.71427917px;line-height:1.25;font-family:sans-serif;-inkscape-font-specification:'sans-serif Bold';letter-spacing:0px;word-spacing:0px;fill:#0070dc;fill-opacity:1;stroke:none;stroke-width:1.33928573"
         id="text16">
        <path
           d="m 99.987791,1025.0018 q 0,8.4752 -3.452846,15.1455 -3.374372,6.6703 -9.338378,11.0648 -6.905692,5.1793 -15.223912,7.3765 -8.239745,2.1973 -20.952496,2.1973 H 0.01220901 V 943.93845 H 45.370048 q 14.125278,0 20.638601,0.94168 6.591796,0.94169 13.026646,4.15911 6.67027,3.37437 9.887694,9.10296 3.295899,5.65011 3.295899,12.94817 0,8.47517 -4.473005,14.98849 -4.473005,6.43485 -12.634277,10.04464 v 0.62779 q 11.45717,2.27574 18.127441,9.41681 6.748744,7.1412 6.748744,18.8337 z M 61.378696,976.9759 q 0,-2.90353 -1.491001,-5.80706 -1.412528,-2.90353 -5.100795,-4.31605 -3.295898,-1.25558 -8.239746,-1.33406 -4.865374,-0.15694 -13.732909,-0.15694 h -2.825056 v 24.71923 h 4.708426 q 7.141113,0 12.163434,-0.23542 5.022321,-0.23542 7.925851,-1.56947 4.080636,-1.8049 5.336216,-4.62996 1.25558,-2.90353 1.25558,-6.67027 z m 7.376535,47.5551 q 0,-5.5716 -2.197266,-8.5536 -2.118792,-3.0605 -7.29806,-4.5515 -3.53132,-1.0202 -9.730748,-1.0986 -6.199427,-0.079 -12.948172,-0.079 h -6.591796 v 29.1137 h 2.197265 q 12.712751,0 18.205915,-0.078 5.493164,-0.079 10.123116,-2.0403 4.708426,-1.9619 6.434849,-5.1793 1.804897,-3.2959 1.804897,-7.5335 z"
           style="font-style:normal;font-variant:normal;font-weight:bold;font-stretch:normal;font-size:160.71427917px;font-family:sans-serif;-inkscape-font-specification:'sans-serif Bold';fill:#0070dc;fill-opacity:1;stroke-width:1.33928573"
           id="path819" />
      </g>
    </g>
  </g>
</svg>
